<svg width="40" height="42" viewBox="0 0 40 42" fill="none" xmlns="http://www.w3.org/2000/svg">
  <rect x="1" y="1.03125" width="37.4713" height="39.9383" rx="5" fill="#41C1F0" stroke="#F0F0F0" stroke-width="2"/>
  
  <!-- Mask for the first rectangle -->
  <mask id="mask0_175_4705" style="mask-type:alpha" maskUnits="userSpaceOnUse" x="12" y="6" width="16" height="16">
    <rect x="12.3364" y="6.19922" width="14.8021" height="14.8021" fill="#D9D9D9">
      <animate attributeName="opacity" values="1;0;1" dur="2s" repeatCount="indefinite" />
    </rect>
  </mask>
  <g mask="url(#mask0_175_4705)">
    <path d="M15.5267 19.4461C15.0773 19.4461 14.6925 19.2861 14.3724 18.966C14.0524 18.646 13.8923 18.2612 13.8923 17.8117V9.38636C13.8923 8.93689 14.0524 8.55213 14.3724 8.23206C14.6925 7.91199 15.0773 7.75195 15.5267 7.75195H23.9521C24.046 7.75195 24.1507 7.76257 24.2662 7.78379C24.3817 7.80502 24.4871 7.83687 24.5823 7.87933L23.0752 9.38636H15.5267V17.8117H23.9521V13.9195L25.5865 12.2851V17.8117C25.5865 18.2612 25.4265 18.646 25.1064 18.966C24.7863 19.2861 24.4016 19.4461 23.9521 19.4461H15.5267ZM19.5162 16.6131L16.0315 13.1284L16.9821 12.1778L19.5162 14.7032L25.2882 8.93115L26.2542 9.87505L19.5162 16.6131Z" fill="white"/>
  </g>
  
  <!-- Mask for the second rectangle -->
  <mask id="mask1_175_4705" style="mask-type:alpha" maskUnits="userSpaceOnUse" x="12" y="21" width="16" height="15">
    <rect x="12.3364" y="21.002" width="14.8021" height="14.8021" fill="#D9D9D9">
      <animate attributeName="opacity" values="1;0;1" dur="2s" begin="1s" repeatCount="indefinite" />
    </rect>
  </mask>
  <g mask="url(#mask1_175_4705)">
    <path d="M15.5267 34.2479C15.0713 34.2479 14.6851 34.0893 14.368 33.7723C14.0509 33.4552 13.8923 33.0689 13.8923 32.6135V24.1881C13.8923 23.7327 14.0509 23.3464 14.368 23.0294C14.6851 22.7123 15.0713 22.5537 15.5267 22.5537H23.9521C24.4075 22.5537 24.7938 22.7123 25.1109 23.0294C25.428 23.3464 25.5865 23.7327 25.5865 24.1881V32.6135C25.5865 33.0689 25.428 33.4552 25.1109 33.7723C24.7938 34.0893 24.4075 34.2479 23.9521 34.2479H15.5267ZM15.5267 32.6135H23.9521V24.1881H15.5267V32.6135Z" fill="white"/>
  </g>
</svg>
