<svg width="26" height="24" viewBox="0 0 26 24" fill="none" xmlns="http://www.w3.org/2000/svg">
<path d="M1.3335 23.3327C1.05016 23.3327 0.812718 23.2368 0.621163 23.045C0.429385 22.8532 0.333496 22.6157 0.333496 22.3323C0.333496 22.0488 0.429385 21.8113 0.621163 21.62C0.812718 21.4285 1.05016 21.3327 1.3335 21.3327H24.6668C24.9502 21.3327 25.1876 21.4286 25.3792 21.6203C25.5709 21.8121 25.6668 22.0497 25.6668 22.333C25.6668 22.6166 25.5709 22.854 25.3792 23.0453C25.1876 23.2369 24.9502 23.3327 24.6668 23.3327H1.3335ZM3.33516 19.4863C2.8725 19.4863 2.47883 19.3244 2.15416 19.0004C1.82927 18.6763 1.66683 18.2828 1.66683 17.8197V12.9993C1.66683 12.5365 1.82872 12.1429 2.1525 11.8187C2.47627 11.4947 2.8695 11.3327 3.33216 11.3327C3.79461 11.3327 4.18816 11.4947 4.51283 11.8187C4.83772 12.1429 5.00016 12.5365 5.00016 12.9993V17.8197C5.00016 18.2828 4.83827 18.6763 4.5145 19.0004C4.19072 19.3244 3.79761 19.4863 3.33516 19.4863ZM9.77083 19.4863C9.30838 19.4863 8.91472 19.3244 8.58983 19.0004C8.26516 18.6763 8.10283 18.2828 8.10283 17.8197V6.33268C8.10283 5.86979 8.26472 5.47624 8.5885 5.15202C8.91227 4.82802 9.30538 4.66602 9.76783 4.66602C10.2305 4.66602 10.6242 4.82802 10.9488 5.15202C11.2737 5.47624 11.4362 5.86979 11.4362 6.33268V17.8197C11.4362 18.2828 11.2743 18.6763 10.9505 19.0004C10.6267 19.3244 10.2335 19.4863 9.77083 19.4863ZM16.2195 19.4863C15.7571 19.4863 15.3634 19.3244 15.0385 19.0004C14.7138 18.6763 14.5515 18.2828 14.5515 17.8197V10.3327C14.5515 9.86979 14.7134 9.47624 15.0372 9.15202C15.3609 8.82802 15.7541 8.66602 16.2165 8.66602C16.6792 8.66602 17.0728 8.82802 17.3975 9.15202C17.7224 9.47624 17.8848 9.86979 17.8848 10.3327V17.8197C17.8848 18.2828 17.7229 18.6763 17.3992 19.0004C17.0754 19.3244 16.6822 19.4863 16.2195 19.4863ZM22.6682 19.4863C22.2057 19.4863 21.8122 19.3244 21.4875 19.0004C21.1626 18.6763 21.0002 18.2828 21.0002 17.8197V2.33268C21.0002 1.86979 21.1621 1.47624 21.4858 1.15202C21.8096 0.828016 22.2027 0.666016 22.6652 0.666016C23.1278 0.666016 23.5215 0.828016 23.8462 1.15202C24.1711 1.47624 24.3335 1.86979 24.3335 2.33268V17.8197C24.3335 18.2828 24.1716 18.6763 23.8478 19.0004C23.524 19.3244 23.1308 19.4863 22.6682 19.4863Z" fill="url(#paint0_linear_522_376)"/>
<defs>
<linearGradient id="paint0_linear_522_376" x1="0.621375" y1="22.7031" x2="26.8334" y2="21.215" gradientUnits="userSpaceOnUse">
<stop stop-color="#303030"/>
<stop offset="0.317708" stop-color="#303030"/>
<stop offset="0.65625" stop-color="#242429"/>
<stop offset="1" stop-color="#101010"/>
</linearGradient>
</defs>
</svg>
