<svg width="20" height="21" viewBox="0 0 20 21" fill="none" xmlns="http://www.w3.org/2000/svg">
<path d="M10 20.5C8.61667 20.5 7.31667 20.2375 6.1 19.7125C4.88333 19.1875 3.825 18.475 2.925 17.575C2.025 16.675 1.3125 15.6167 0.7875 14.4C0.2625 13.1833 0 11.8833 0 10.5C0 9.11667 0.2625 7.81667 0.7875 6.6C1.3125 5.38333 2.025 4.325 2.925 3.425C3.825 2.525 4.88333 1.8125 6.1 1.2875C7.31667 0.7625 8.61667 0.5 10 0.5C11.3833 0.5 12.6833 0.7625 13.9 1.2875C15.1167 1.8125 16.175 2.525 17.075 3.425C17.975 4.325 18.6875 5.38333 19.2125 6.6C19.7375 7.81667 20 9.11667 20 10.5C20 11.8833 19.7375 13.1833 19.2125 14.4C18.6875 15.6167 17.975 16.675 17.075 17.575C16.175 18.475 15.1167 19.1875 13.9 19.7125C12.6833 20.2375 11.3833 20.5 10 20.5ZM10 18.5C10.9 18.5 11.7667 18.3542 12.6 18.0625C13.4333 17.7708 14.2 17.35 14.9 16.8L3.7 5.6C3.15 6.3 2.72917 7.06667 2.4375 7.9C2.14583 8.73333 2 9.6 2 10.5C2 12.7333 2.775 14.625 4.325 16.175C5.875 17.725 7.76667 18.5 10 18.5ZM16.3 15.4C16.85 14.7 17.2708 13.9333 17.5625 13.1C17.8542 12.2667 18 11.4 18 10.5C18 8.26667 17.225 6.375 15.675 4.825C14.125 3.275 12.2333 2.5 10 2.5C9.1 2.5 8.23333 2.64583 7.4 2.9375C6.56667 3.22917 5.8 3.65 5.1 4.2L16.3 15.4Z" fill="#FF5E53"/>
</svg>
