<svg width="20" height="19" viewBox="0 0 20 19" fill="none" xmlns="http://www.w3.org/2000/svg">
<path d="M8.58075 11.6463L6.25775 9.323C6.11925 9.18467 5.94517 9.11383 5.7355 9.1105C5.526 9.10733 5.34875 9.17817 5.20375 9.323C5.05892 9.468 4.9865 9.64367 4.9865 9.85C4.9865 10.0563 5.05892 10.232 5.20375 10.377L7.948 13.1212C8.12883 13.3019 8.33975 13.3923 8.58075 13.3923C8.82175 13.3923 9.03267 13.3019 9.2135 13.1212L14.777 7.55775C14.9153 7.41925 14.9862 7.24517 14.9895 7.0355C14.9927 6.826 14.9218 6.64875 14.777 6.50375C14.632 6.35892 14.4563 6.2865 14.25 6.2865C14.0437 6.2865 13.868 6.35892 13.723 6.50375L8.58075 11.6463ZM10.0017 19C8.68775 19 7.45267 18.7507 6.2965 18.252C5.14033 17.7533 4.13467 17.0766 3.2795 16.2218C2.42433 15.3669 1.74725 14.3617 1.24825 13.206C0.749417 12.0503 0.5 10.8156 0.5 9.50175C0.5 8.18775 0.749333 6.95267 1.248 5.7965C1.74667 4.64033 2.42342 3.63467 3.27825 2.7795C4.13308 1.92433 5.13833 1.24725 6.294 0.74825C7.44967 0.249417 8.68442 0 9.99825 0C11.3123 0 12.5473 0.249333 13.7035 0.748C14.8597 1.24667 15.8653 1.92342 16.7205 2.77825C17.5757 3.63308 18.2528 4.63833 18.7518 5.794C19.2506 6.94967 19.5 8.18442 19.5 9.49825C19.5 10.8123 19.2507 12.0473 18.752 13.2035C18.2533 14.3597 17.5766 15.3653 16.7218 16.2205C15.8669 17.0757 14.8617 17.7528 13.706 18.2518C12.5503 18.7506 11.3156 19 10.0017 19ZM10 17.5C12.2333 17.5 14.125 16.725 15.675 15.175C17.225 13.625 18 11.7333 18 9.5C18 7.26667 17.225 5.375 15.675 3.825C14.125 2.275 12.2333 1.5 10 1.5C7.76667 1.5 5.875 2.275 4.325 3.825C2.775 5.375 2 7.26667 2 9.5C2 11.7333 2.775 13.625 4.325 15.175C5.875 16.725 7.76667 17.5 10 17.5Z" fill="white"/>
</svg>
