<svg width="23" height="22" viewBox="0 0 23 22" fill="none" xmlns="http://www.w3.org/2000/svg">
<path d="M15.8333 14.4531C14.9732 14.4531 14.2422 14.1521 13.6402 13.5501C13.0382 12.9481 12.7372 12.2171 12.7372 11.3571C12.7372 10.4971 13.0382 9.76605 13.6402 9.16405C14.2422 8.56205 14.9732 8.26105 15.8333 8.26105C16.6933 8.26105 17.4243 8.56205 18.0263 9.16405C18.6283 9.76605 18.9293 10.4971 18.9293 11.3571C18.9293 12.2171 18.6283 12.9481 18.0263 13.5501C17.4243 14.1521 16.6933 14.4531 15.8333 14.4531ZM15.8333 12.7031C16.2087 12.7031 16.5269 12.5727 16.7879 12.3117C17.0488 12.0508 17.1793 11.7326 17.1793 11.3571C17.1793 10.9816 17.0488 10.6634 16.7879 10.4025C16.5269 10.1413 16.2087 10.0108 15.8333 10.0108C15.4578 10.0108 15.1396 10.1413 14.8786 10.4025C14.6177 10.6634 14.4872 10.9816 14.4872 11.3571C14.4872 11.7326 14.6177 12.0508 14.8786 12.3117C15.1396 12.5727 15.4578 12.7031 15.8333 12.7031ZM10.2916 21.9805C9.99292 21.9805 9.74247 21.8794 9.54025 21.6771C9.33822 21.4751 9.23721 21.2247 9.23721 20.9258V19.0008C9.23721 18.663 9.31771 18.3454 9.47871 18.0479C9.63971 17.7504 9.86507 17.5132 10.1548 17.3363C10.7321 16.9892 11.2253 16.7465 11.6344 16.6083C12.0435 16.4698 12.5823 16.3451 13.2508 16.234C13.4678 16.1971 13.6817 16.2016 13.8925 16.2475C14.1035 16.2934 14.2793 16.399 14.4198 16.5645L15.8333 18.3122L17.2175 16.5645C17.3581 16.385 17.5339 16.2759 17.7448 16.237C17.9556 16.1981 18.1704 16.1971 18.3891 16.234C19.0635 16.3451 19.6026 16.4694 20.0064 16.6071C20.4105 16.7446 20.9063 16.9876 21.4939 17.3363C21.784 17.5126 22.0106 17.749 22.1735 18.0453C22.3366 18.3414 22.4219 18.6562 22.4293 18.9897V20.9258C22.4293 21.2247 22.3283 21.4751 22.1263 21.6771C21.924 21.8794 21.6736 21.9805 21.3749 21.9805H10.2916ZM10.958 20.2305H15.1175L13.3071 17.924C12.8949 18.0284 12.4942 18.164 12.1049 18.3308C11.7156 18.4979 11.3333 18.6839 10.958 18.8888V20.2305ZM16.549 20.2305H20.6793V18.8888C20.3159 18.6718 19.9395 18.4848 19.5503 18.3279C19.1612 18.1708 18.7605 18.04 18.3483 17.9353L16.549 20.2305ZM1.83325 18.1663V1.83301V5.96359V5.47884V18.1663ZM2.19754 19.9163C1.61227 19.9163 1.11352 19.7098 0.701294 19.2968C0.289266 18.8838 0.083252 18.3873 0.083252 17.8073V2.19205C0.083252 1.61202 0.289752 1.11551 0.702752 0.702508C1.11575 0.289508 1.61227 0.0830078 2.19229 0.0830078H17.8075C18.3876 0.0830078 18.8841 0.289508 19.2971 0.702508C19.7101 1.11551 19.9166 1.61202 19.9166 2.19205V7.26238C19.6728 6.98569 19.4129 6.72659 19.137 6.48509C18.861 6.24359 18.5376 6.07569 18.1666 5.98138V2.19205C18.1666 2.08724 18.1329 2.0012 18.0657 1.93393C17.9984 1.86665 17.9123 1.83301 17.8075 1.83301H2.19229C2.08749 1.83301 2.00145 1.86665 1.93417 1.93393C1.86689 2.0012 1.83325 2.08724 1.83325 2.19205V17.8073C1.83325 17.9121 1.86689 17.9981 1.93417 18.0654C2.00145 18.1327 2.08749 18.1663 2.19229 18.1663H6.56263C6.52685 18.3054 6.49992 18.4445 6.48184 18.5837C6.46395 18.7227 6.455 18.8618 6.455 19.0008V19.9163H2.19754ZM5.33325 6.34247H12.8717C13.265 6.06577 13.6902 5.86015 14.1471 5.72559C14.6041 5.59104 15.0689 5.51627 15.5416 5.5013V5.46776C15.5416 5.21984 15.4577 5.01198 15.2899 4.84417C15.1223 4.67656 14.9145 4.59276 14.6666 4.59276H5.33325C5.08534 4.59276 4.87757 4.67666 4.70996 4.84447C4.54215 5.01208 4.45825 5.21994 4.45825 5.46805C4.45825 5.71597 4.54215 5.92373 4.70996 6.09134C4.87757 6.25876 5.08534 6.34247 5.33325 6.34247ZM5.33325 10.8747H10.011C10.026 10.5636 10.0679 10.264 10.1367 9.97605C10.2055 9.68827 10.2953 9.40448 10.4059 9.12467H5.33325C5.08534 9.12467 4.87757 9.20858 4.70996 9.37638C4.54215 9.54419 4.45825 9.75205 4.45825 9.99997C4.45825 10.2481 4.54215 10.4558 4.70996 10.6233C4.87757 10.7909 5.08534 10.8747 5.33325 10.8747ZM5.33325 15.4066H8.10088C8.30796 15.2392 8.52554 15.0856 8.75363 14.9458C8.98171 14.8058 9.21465 14.6812 9.45246 14.5721V14.3747C9.45246 14.1831 9.40161 14.0156 9.29992 13.8721C9.19822 13.7286 9.00981 13.6569 8.73467 13.6569H5.33325C5.08534 13.6569 4.87757 13.7407 4.70996 13.9083C4.54215 14.0761 4.45825 14.2841 4.45825 14.5322C4.45825 14.7801 4.54215 14.9879 4.70996 15.1555C4.87757 15.3229 5.08534 15.4066 5.33325 15.4066Z" fill="url(#paint0_linear_522_380)"/>
<defs>
<linearGradient id="paint0_linear_522_380" x1="0.337184" y1="21.3722" x2="23.4707" y2="20.1731" gradientUnits="userSpaceOnUse">
<stop stop-color="#303030"/>
<stop offset="0.317708" stop-color="#303030"/>
<stop offset="0.65625" stop-color="#242429"/>
<stop offset="1" stop-color="#101010"/>
</linearGradient>
</defs>
</svg>
