<svg width="26" height="26" viewBox="0 0 26 26" fill="none" xmlns="http://www.w3.org/2000/svg">
<path d="M9.25617 6.59032H18.7435C19.0268 6.59032 19.2643 6.68621 19.4558 6.87798C19.6476 7.06976 19.7435 7.30743 19.7435 7.59098C19.7435 7.87432 19.6476 8.11176 19.4558 8.30332C19.2643 8.49465 19.0268 8.59032 18.7435 8.59032H9.25617C8.97284 8.59032 8.73539 8.49443 8.54384 8.30265C8.35206 8.11087 8.25617 7.87332 8.25617 7.58998C8.25617 7.30643 8.35206 7.06898 8.54384 6.87765C8.73539 6.6861 8.97284 6.59032 9.25617 6.59032ZM9.25617 10.4367H18.7435C19.0268 10.4367 19.2643 10.5325 19.4558 10.7243C19.6476 10.9159 19.7435 11.1534 19.7435 11.437C19.7435 11.7205 19.6476 11.958 19.4558 12.1493C19.2643 12.3409 19.0268 12.4367 18.7435 12.4367H9.25617C8.97284 12.4367 8.73539 12.3408 8.54384 12.149C8.35206 11.9572 8.25617 11.7195 8.25617 11.436C8.25617 11.1526 8.35206 10.9152 8.54384 10.7237C8.73539 10.5323 8.97284 10.4367 9.25617 10.4367ZM3.99984 25.6673C3.06828 25.6673 2.27984 25.3447 1.6345 24.6993C0.98917 24.054 0.666504 23.2655 0.666504 22.334V19.693C0.666504 19.3514 0.782059 19.0652 1.01317 18.8343C1.24406 18.6034 1.53028 18.488 1.87184 18.488H4.6665V2.74432C4.6665 2.08143 4.9025 1.51398 5.3745 1.04198C5.8465 0.569984 6.41395 0.333984 7.07684 0.333984H20.9228C21.5857 0.333984 22.1532 0.569984 22.6252 1.04198C23.0972 1.51398 23.3332 2.08143 23.3332 2.74432V10.616C23.3332 10.8993 23.2373 11.1369 23.0455 11.3287C22.8537 11.5202 22.6162 11.616 22.3328 11.616C22.0493 11.616 21.8118 11.5202 21.6205 11.3287C21.4289 11.1369 21.3332 10.8993 21.3332 10.616V2.74432C21.3332 2.62454 21.2947 2.52621 21.2178 2.44932C21.1409 2.37243 21.0426 2.33398 20.9228 2.33398H7.07684C6.95706 2.33398 6.85873 2.37243 6.78184 2.44932C6.70495 2.52621 6.6665 2.62454 6.6665 2.74432V18.488H10.8972C11.1805 18.488 11.4181 18.5838 11.6098 18.7753C11.8014 18.9671 11.8972 19.2048 11.8972 19.4883C11.8972 19.7717 11.8014 20.0091 11.6098 20.2007C11.4181 20.392 11.1805 20.4876 10.8972 20.4876H2.6665V22.334C2.6665 22.7118 2.79428 23.0284 3.04984 23.284C3.30539 23.5395 3.62206 23.6673 3.99984 23.6673H10.8972C11.1805 23.6673 11.4181 23.7632 11.6098 23.955C11.8014 24.1468 11.8972 24.3843 11.8972 24.6677C11.8972 24.9512 11.8014 25.1887 11.6098 25.38C11.4181 25.5715 11.1805 25.6673 10.8972 25.6673H3.99984ZM14.8205 24.462V22.6467C14.8205 22.4898 14.8495 22.3378 14.9075 22.1906C14.9657 22.0435 15.0572 21.9075 15.1818 21.7826L22.0588 14.939C22.2246 14.7732 22.4036 14.6565 22.5958 14.589C22.7881 14.5217 22.9803 14.488 23.1725 14.488C23.3821 14.488 23.5848 14.5272 23.7808 14.6056C23.9768 14.6843 24.1549 14.8023 24.3152 14.9597L25.5485 16.2057C25.6921 16.3717 25.8032 16.5512 25.8818 16.7443C25.9605 16.9374 25.9998 17.1305 25.9998 17.3237C25.9998 17.5168 25.9639 17.7133 25.8922 17.9133C25.8204 18.1133 25.7058 18.2962 25.5485 18.462L18.7048 25.3057C18.5802 25.4305 18.4443 25.522 18.2972 25.58C18.1498 25.6382 17.9977 25.6673 17.8408 25.6673H16.0255C15.6839 25.6673 15.3977 25.5518 15.1668 25.3207C14.9359 25.0898 14.8205 24.8035 14.8205 24.462ZM16.4102 24.0777H17.6768L22.0048 19.7286L21.3922 19.0953L20.7715 18.47L16.4102 22.811V24.0777ZM21.3922 19.0953L20.7715 18.47L22.0048 19.7286L21.3922 19.0953Z" fill="url(#paint0_linear_522_372)"/>
<defs>
<linearGradient id="paint0_linear_522_372" x1="0.954383" y1="24.9636" x2="27.1832" y2="23.6313" gradientUnits="userSpaceOnUse">
<stop stop-color="#303030"/>
<stop offset="0.317708" stop-color="#303030"/>
<stop offset="0.65625" stop-color="#242429"/>
<stop offset="1" stop-color="#101010"/>
</linearGradient>
</defs>
</svg>
