<svg width="24" height="27" viewBox="0 0 24 27" fill="none" xmlns="http://www.w3.org/2000/svg">
<path d="M0.666748 20.8155V11.1925C0.666748 10.6351 0.87197 10.1698 1.28241 9.79648C1.69264 9.42293 2.17719 9.25837 2.73608 9.30282C4.47453 9.56948 6.1253 10.0862 7.68841 10.8528C9.25175 11.6195 10.689 12.5968 12.0001 13.7848C13.3112 12.5968 14.7484 11.6195 16.3117 10.8528C17.8749 10.0862 19.5256 9.56948 21.2641 9.30282C21.823 9.25837 22.3075 9.42293 22.7177 9.79648C23.1282 10.1698 23.3334 10.6351 23.3334 11.1925V20.8155C23.3334 21.347 23.1577 21.803 22.8064 22.1835C22.4551 22.5637 22.0136 22.776 21.4821 22.8205C19.9914 23.0514 18.5773 23.4203 17.2397 23.9272C15.9022 24.4338 14.6214 25.1179 13.3974 25.9795C13.1872 26.1453 12.9664 26.2675 12.7351 26.3462C12.5035 26.4248 12.2582 26.4641 11.9991 26.4641C11.74 26.4641 11.495 26.4248 11.2641 26.3462C11.0334 26.2675 10.813 26.1453 10.6027 25.9795C9.37875 25.1179 8.10008 24.4338 6.76675 23.9272C5.43341 23.4203 4.01719 23.0514 2.51808 22.8205C1.98653 22.776 1.54508 22.5637 1.19375 22.1835C0.842415 21.803 0.666748 21.347 0.666748 20.8155ZM12.0001 24.5078C13.4001 23.472 14.889 22.6412 16.4667 22.0152C18.0445 21.3892 19.6667 20.9756 21.3334 20.7745V11.3181C19.6514 11.607 18.0227 12.1797 16.4474 13.0361C14.8723 13.8924 13.3899 15.0154 12.0001 16.4052C10.6103 15.0154 9.12786 13.8924 7.55275 13.0361C5.97741 12.1797 4.34875 11.607 2.66675 11.3181V20.7745C4.33341 20.9756 5.95564 21.3892 7.53341 22.0152C9.11119 22.6412 10.6001 23.472 12.0001 24.5078ZM12.0001 9.71815C10.6745 9.71815 9.53975 9.24615 8.59575 8.30215C7.65175 7.35815 7.17975 6.22326 7.17975 4.89748C7.17975 3.57193 7.65175 2.43715 8.59575 1.49315C9.53975 0.549148 10.6745 0.0771484 12.0001 0.0771484C13.3256 0.0771484 14.4604 0.549148 15.4044 1.49315C16.3484 2.43715 16.8204 3.57193 16.8204 4.89748C16.8204 6.22326 16.3484 7.35815 15.4044 8.30215C14.4604 9.24615 13.3256 9.71815 12.0001 9.71815ZM12.0004 7.71815C12.7762 7.71815 13.4402 7.44193 13.9924 6.88948C14.5446 6.33704 14.8207 5.67293 14.8207 4.89715C14.8207 4.12137 14.5445 3.45737 13.9921 2.90515C13.4396 2.35315 12.7755 2.07715 11.9997 2.07715C11.224 2.07715 10.56 2.35337 10.0077 2.90581C9.45553 3.45826 9.17941 4.12237 9.17941 4.89815C9.17941 5.67393 9.45564 6.33782 10.0081 6.88982C10.5605 7.44204 11.2246 7.71815 12.0004 7.71815Z" fill="url(#paint0_linear_522_368)"/>
<defs>
<linearGradient id="paint0_linear_522_368" x1="0.924324" y1="25.7312" x2="24.4081" y2="24.7065" gradientUnits="userSpaceOnUse">
<stop stop-color="#303030"/>
<stop offset="0.317708" stop-color="#303030"/>
<stop offset="0.65625" stop-color="#242429"/>
<stop offset="1" stop-color="#101010"/>
</linearGradient>
</defs>
</svg>
