<svg width="216" height="346" viewBox="0 0 216 346" fill="none" xmlns="http://www.w3.org/2000/svg">
<g clip-path="url(#clip0_185_8882)">
<rect x="0.258911" width="215" height="465.164" rx="7.03271" fill="#F8F8F8"/>
<rect x="0.258911" width="215" height="60" fill="#242429"/>
<rect x="73.4589" y="9" width="69.6" height="12" rx="6" fill="#36363D"/>
<path d="M13.0948 35.8004H15.8738C16.471 35.8004 16.98 35.8903 17.4009 36.0702C17.8218 36.2501 18.1438 36.5163 18.3669 36.8688C18.5935 37.2178 18.7068 37.6495 18.7068 38.1639C18.7068 38.556 18.6349 38.9014 18.491 39.2C18.3471 39.4986 18.1438 39.7504 17.8812 39.9554C17.6186 40.1569 17.3056 40.3134 16.9423 40.4249L16.5322 40.6246H14.0337L14.0229 39.5507H15.8954C16.2192 39.5507 16.489 39.4932 16.7048 39.378C16.9207 39.2629 17.0826 39.1064 17.1905 38.9086C17.302 38.7071 17.3578 38.4805 17.3578 38.2287C17.3578 37.9552 17.3038 37.7178 17.1959 37.5164C17.0916 37.3113 16.9297 37.1548 16.7102 37.0469C16.4908 36.9354 16.212 36.8796 15.8738 36.8796H14.4492V43.6572H13.0948V35.8004ZM17.579 43.6572L15.7335 40.1281L17.1527 40.1227L19.0252 43.5871V43.6572H17.579ZM23.218 42.4863V39.7018C23.218 39.4932 23.1803 39.3133 23.1047 39.1622C23.0292 39.0111 22.9141 38.8942 22.7594 38.8114C22.6083 38.7287 22.4176 38.6873 22.1874 38.6873C21.9751 38.6873 21.7916 38.7233 21.637 38.7953C21.4823 38.8672 21.3617 38.9643 21.2754 39.0867C21.1891 39.209 21.1459 39.3475 21.1459 39.5022H19.8508C19.8508 39.2719 19.9066 39.0489 20.0181 38.833C20.1296 38.6172 20.2915 38.4247 20.5038 38.2556C20.716 38.0866 20.9696 37.9535 21.2646 37.8563C21.5596 37.7592 21.8906 37.7106 22.2575 37.7106C22.6964 37.7106 23.0849 37.7844 23.4231 37.9319C23.7649 38.0794 24.0329 38.3024 24.2271 38.601C24.425 38.896 24.5239 39.2665 24.5239 39.7126V42.3082C24.5239 42.5744 24.5419 42.8136 24.5779 43.0259C24.6174 43.2345 24.6732 43.4162 24.7452 43.5709V43.6572H23.4123C23.3511 43.5169 23.3026 43.3389 23.2666 43.123C23.2342 42.9036 23.218 42.6913 23.218 42.4863ZM23.4069 40.1065L23.4177 40.9106H22.4842C22.2431 40.9106 22.0309 40.9339 21.8474 40.9807C21.6639 41.0239 21.511 41.0886 21.3887 41.175C21.2664 41.2613 21.1747 41.3656 21.1135 41.488C21.0524 41.6103 21.0218 41.7488 21.0218 41.9035C21.0218 42.0582 21.0578 42.2003 21.1297 42.3298C21.2017 42.4557 21.306 42.5546 21.4427 42.6266C21.583 42.6985 21.7521 42.7345 21.9499 42.7345C22.2161 42.7345 22.4482 42.6805 22.646 42.5726C22.8475 42.4611 23.0058 42.3262 23.1209 42.1679C23.236 42.006 23.2972 41.8531 23.3044 41.7092L23.7253 42.2866C23.6821 42.4341 23.6084 42.5924 23.504 42.7615C23.3997 42.9305 23.263 43.0924 23.0939 43.2471C22.9284 43.3982 22.7288 43.5223 22.4949 43.6195C22.2647 43.7166 21.9985 43.7652 21.6963 43.7652C21.315 43.7652 20.975 43.6896 20.6764 43.5385C20.3778 43.3838 20.144 43.177 19.9749 42.9179C19.8058 42.6553 19.7213 42.3585 19.7213 42.0276C19.7213 41.7182 19.7789 41.4448 19.894 41.2074C20.0127 40.9663 20.1854 40.7649 20.412 40.603C20.6423 40.4411 20.9229 40.3188 21.2538 40.236C21.5848 40.1497 21.9625 40.1065 22.387 40.1065H23.4069ZM28.5603 37.8185V38.7683H25.2686V37.8185H28.5603ZM26.2183 36.3886H27.5188V42.0438C27.5188 42.2236 27.544 42.3621 27.5943 42.4593C27.6483 42.5528 27.7221 42.6158 27.8156 42.6481C27.9091 42.6805 28.0188 42.6967 28.1448 42.6967C28.2347 42.6967 28.321 42.6913 28.4038 42.6805C28.4865 42.6697 28.5531 42.6589 28.6034 42.6481L28.6088 43.641C28.5009 43.6734 28.375 43.7022 28.2311 43.7274C28.0908 43.7526 27.9289 43.7652 27.7454 43.7652C27.4469 43.7652 27.1824 43.713 26.9522 43.6087C26.722 43.5007 26.5421 43.3263 26.4126 43.0852C26.2831 42.8442 26.2183 42.524 26.2183 42.1247V36.3886ZM32.1379 43.7652C31.7062 43.7652 31.3159 43.695 30.967 43.5547C30.6216 43.4108 30.3266 43.2111 30.082 42.9557C29.841 42.7003 29.6557 42.3999 29.5262 42.0546C29.3967 41.7092 29.3319 41.3369 29.3319 40.9375V40.7217C29.3319 40.2648 29.3985 39.8511 29.5316 39.4806C29.6647 39.11 29.85 38.7935 30.0874 38.5308C30.3248 38.2646 30.6054 38.0614 30.9292 37.9211C31.253 37.7808 31.6037 37.7106 31.9815 37.7106C32.3988 37.7106 32.7639 37.7808 33.0769 37.9211C33.3899 38.0614 33.6489 38.2592 33.8539 38.5147C34.0626 38.7665 34.2173 39.0669 34.318 39.4158C34.4223 39.7648 34.4745 40.1497 34.4745 40.5706V41.1264H29.9633V40.1929H33.1902V40.0903C33.183 39.8565 33.1362 39.6371 33.0499 39.432C32.9672 39.227 32.8394 39.0615 32.6668 38.9356C32.4941 38.8096 32.2639 38.7467 31.9761 38.7467C31.7602 38.7467 31.5677 38.7935 31.3987 38.887C31.2332 38.9769 31.0947 39.1082 30.9832 39.2809C30.8716 39.4536 30.7853 39.6622 30.7241 39.9069C30.6666 40.1479 30.6378 40.4195 30.6378 40.7217V40.9375C30.6378 41.193 30.672 41.4304 30.7403 41.6498C30.8123 41.8657 30.9166 42.0546 31.0533 42.2164C31.19 42.3783 31.3555 42.506 31.5498 42.5996C31.744 42.6895 31.9653 42.7345 32.2135 42.7345C32.5265 42.7345 32.8053 42.6715 33.0499 42.5456C33.2945 42.4197 33.5068 42.2416 33.6866 42.0114L34.372 42.6751C34.2461 42.8586 34.0824 43.0349 33.8809 43.2039C33.6795 43.3694 33.433 43.5043 33.1416 43.6087C32.8538 43.713 32.5193 43.7652 32.1379 43.7652ZM39.9354 43.0205L41.5219 37.8185H42.9141L40.5722 44.5476C40.5182 44.6915 40.4481 44.848 40.3617 45.0171C40.2754 45.1861 40.1621 45.3462 40.0218 45.4973C39.8851 45.652 39.7142 45.7761 39.5091 45.8697C39.3041 45.9668 39.0559 46.0154 38.7645 46.0154C38.6493 46.0154 38.5378 46.0046 38.4299 45.983C38.3256 45.965 38.2266 45.9452 38.1331 45.9236L38.1277 44.9307C38.1637 44.9343 38.2069 44.9379 38.2572 44.9415C38.3112 44.9451 38.3544 44.9469 38.3867 44.9469C38.6026 44.9469 38.7825 44.9199 38.9264 44.866C39.0702 44.8156 39.1872 44.7329 39.2771 44.6177C39.3706 44.5026 39.4498 44.3479 39.5145 44.1537L39.9354 43.0205ZM39.0397 37.8185L40.4265 42.1895L40.6585 43.5601L39.7574 43.7921L37.6367 37.8185H39.0397ZM43.3242 40.8026V40.6785C43.3242 40.2576 43.3854 39.8673 43.5077 39.5076C43.63 39.1442 43.8063 38.8294 44.0365 38.5632C44.2704 38.2934 44.5546 38.0848 44.8891 37.9373C45.2273 37.7862 45.6086 37.7106 46.0331 37.7106C46.4612 37.7106 46.8426 37.7862 47.1771 37.9373C47.5153 38.0848 47.8013 38.2934 48.0351 38.5632C48.269 38.8294 48.447 39.1442 48.5693 39.5076C48.6917 39.8673 48.7528 40.2576 48.7528 40.6785V40.8026C48.7528 41.2235 48.6917 41.6139 48.5693 41.9736C48.447 42.3334 48.269 42.6481 48.0351 42.9179C47.8013 43.1842 47.5171 43.3928 47.1825 43.5439C46.848 43.6914 46.4684 43.7652 46.0439 43.7652C45.6158 43.7652 45.2327 43.6914 44.8945 43.5439C44.56 43.3928 44.2758 43.1842 44.0419 42.9179C43.8081 42.6481 43.63 42.3334 43.5077 41.9736C43.3854 41.6139 43.3242 41.2235 43.3242 40.8026ZM44.6247 40.6785V40.8026C44.6247 41.0653 44.6517 41.3135 44.7057 41.5473C44.7596 41.7812 44.8442 41.9862 44.9593 42.1625C45.0744 42.3388 45.2219 42.4773 45.4018 42.578C45.5817 42.6787 45.7957 42.7291 46.0439 42.7291C46.285 42.7291 46.4936 42.6787 46.6699 42.578C46.8498 42.4773 46.9973 42.3388 47.1124 42.1625C47.2275 41.9862 47.312 41.7812 47.366 41.5473C47.4236 41.3135 47.4523 41.0653 47.4523 40.8026V40.6785C47.4523 40.4195 47.4236 40.1749 47.366 39.9446C47.312 39.7108 47.2257 39.504 47.107 39.3241C46.9919 39.1442 46.8444 39.0039 46.6645 38.9032C46.4882 38.7989 46.2778 38.7467 46.0331 38.7467C45.7885 38.7467 45.5763 38.7989 45.3964 38.9032C45.2201 39.0039 45.0744 39.1442 44.9593 39.3241C44.8442 39.504 44.7596 39.7108 44.7057 39.9446C44.6517 40.1749 44.6247 40.4195 44.6247 40.6785ZM53.3558 42.2812V37.8185H54.6616V43.6572H53.4313L53.3558 42.2812ZM53.5392 41.0671L53.9763 41.0563C53.9763 41.4484 53.9332 41.8099 53.8468 42.1409C53.7605 42.4683 53.6274 42.7543 53.4475 42.9989C53.2676 43.2399 53.0374 43.4288 52.7568 43.5655C52.4762 43.6986 52.1398 43.7652 51.7477 43.7652C51.4635 43.7652 51.2027 43.7238 50.9653 43.641C50.7278 43.5583 50.5228 43.4306 50.3501 43.2579C50.181 43.0852 50.0497 42.8604 49.9562 42.5834C49.8626 42.3064 49.8159 41.9754 49.8159 41.5905V37.8185H51.1164V41.6013C51.1164 41.8135 51.1415 41.9916 51.1919 42.1355C51.2423 42.2758 51.3106 42.3891 51.397 42.4755C51.4833 42.5618 51.584 42.623 51.6991 42.6589C51.8143 42.6949 51.9366 42.7129 52.0661 42.7129C52.4366 42.7129 52.728 42.6409 52.9403 42.497C53.1561 42.3495 53.309 42.1517 53.3989 41.9035C53.4925 41.6552 53.5392 41.3764 53.5392 41.0671ZM57.3004 38.9302V43.6572H55.9999V37.8185H57.241L57.3004 38.9302ZM59.0865 37.7808L59.0757 38.9895C58.9966 38.9751 58.9103 38.9643 58.8167 38.9571C58.7268 38.9499 58.6368 38.9464 58.5469 38.9464C58.3239 38.9464 58.1278 38.9787 57.9587 39.0435C57.7896 39.1046 57.6475 39.1946 57.5324 39.3133C57.4209 39.4284 57.3346 39.5687 57.2734 39.7342C57.2123 39.8997 57.1763 40.0849 57.1655 40.29L56.8687 40.3116C56.8687 39.9446 56.9047 39.6047 56.9766 39.2917C57.0486 38.9787 57.1565 38.7035 57.3004 38.4661C57.4479 38.2287 57.6314 38.0434 57.8508 37.9103C58.0738 37.7772 58.3311 37.7106 58.6225 37.7106C58.7016 37.7106 58.7861 37.7178 58.8761 37.7322C58.9696 37.7466 59.0398 37.7628 59.0865 37.7808ZM65.9451 42.4863V39.7018C65.9451 39.4932 65.9073 39.3133 65.8318 39.1622C65.7562 39.0111 65.6411 38.8942 65.4864 38.8114C65.3353 38.7287 65.1447 38.6873 64.9144 38.6873C64.7022 38.6873 64.5187 38.7233 64.364 38.7953C64.2093 38.8672 64.0888 38.9643 64.0025 39.0867C63.9161 39.209 63.873 39.3475 63.873 39.5022H62.5779C62.5779 39.2719 62.6336 39.0489 62.7451 38.833C62.8567 38.6172 63.0186 38.4247 63.2308 38.2556C63.4431 38.0866 63.6967 37.9535 63.9917 37.8563C64.2867 37.7592 64.6176 37.7106 64.9846 37.7106C65.4235 37.7106 65.812 37.7844 66.1501 37.9319C66.4919 38.0794 66.7599 38.3024 66.9542 38.601C67.152 38.896 67.251 39.2665 67.251 39.7126V42.3082C67.251 42.5744 67.269 42.8136 67.3049 43.0259C67.3445 43.2345 67.4003 43.4162 67.4722 43.5709V43.6572H66.1394C66.0782 43.5169 66.0296 43.3389 65.9937 43.123C65.9613 42.9036 65.9451 42.6913 65.9451 42.4863ZM66.134 40.1065L66.1447 40.9106H65.2112C64.9702 40.9106 64.7579 40.9339 64.5745 40.9807C64.391 41.0239 64.2381 41.0886 64.1158 41.175C63.9935 41.2613 63.9017 41.3656 63.8406 41.488C63.7794 41.6103 63.7488 41.7488 63.7488 41.9035C63.7488 42.0582 63.7848 42.2003 63.8568 42.3298C63.9287 42.4557 64.033 42.5546 64.1697 42.6266C64.31 42.6985 64.4791 42.7345 64.677 42.7345C64.9432 42.7345 65.1752 42.6805 65.3731 42.5726C65.5746 42.4611 65.7328 42.3262 65.848 42.1679C65.9631 42.006 66.0242 41.8531 66.0314 41.7092L66.4523 42.2866C66.4092 42.4341 66.3354 42.5924 66.2311 42.7615C66.1268 42.9305 65.9901 43.0924 65.821 43.2471C65.6555 43.3982 65.4558 43.5223 65.222 43.6195C64.9918 43.7166 64.7255 43.7652 64.4234 43.7652C64.042 43.7652 63.7021 43.6896 63.4035 43.5385C63.1049 43.3838 62.8711 43.177 62.702 42.9179C62.5329 42.6553 62.4484 42.3585 62.4484 42.0276C62.4484 41.7182 62.5059 41.4448 62.621 41.2074C62.7398 40.9663 62.9124 40.7649 63.1391 40.603C63.3693 40.4411 63.6499 40.3188 63.9809 40.236C64.3118 40.1497 64.6896 40.1065 65.1141 40.1065H66.134ZM71.8863 42.0761C71.8863 41.9466 71.8539 41.8297 71.7892 41.7254C71.7244 41.6175 71.6003 41.5203 71.4168 41.434C71.237 41.3477 70.9707 41.2685 70.6182 41.1966C70.3088 41.1282 70.0246 41.0473 69.7656 40.9537C69.5102 40.8566 69.2907 40.7397 69.1073 40.603C68.9238 40.4663 68.7817 40.3044 68.681 40.1173C68.5802 39.9303 68.5299 39.7144 68.5299 39.4698C68.5299 39.2323 68.582 39.0075 68.6864 38.7953C68.7907 38.583 68.94 38.3959 69.1342 38.2341C69.3285 38.0722 69.5641 37.9445 69.8411 37.8509C70.1217 37.7574 70.4347 37.7106 70.7801 37.7106C71.2693 37.7106 71.6884 37.7934 72.0374 37.9588C72.3899 38.1207 72.6598 38.342 72.8468 38.6226C73.0339 38.8996 73.1274 39.2126 73.1274 39.5615H71.8269C71.8269 39.4068 71.7874 39.2629 71.7082 39.1298C71.6327 38.9931 71.5176 38.8834 71.3629 38.8007C71.2082 38.7143 71.0139 38.6711 70.7801 38.6711C70.557 38.6711 70.3718 38.7071 70.2243 38.7791C70.0804 38.8474 69.9724 38.9374 69.9005 39.0489C69.8321 39.1604 69.798 39.2827 69.798 39.4158C69.798 39.513 69.816 39.6011 69.8519 39.6802C69.8915 39.7558 69.9563 39.8259 70.0462 39.8907C70.1361 39.9518 70.2584 40.0094 70.4131 40.0634C70.5714 40.1173 70.7693 40.1695 71.0067 40.2199C71.4528 40.3134 71.8359 40.4339 72.1561 40.5814C72.4799 40.7253 72.7281 40.9124 72.9008 41.1426C73.0735 41.3692 73.1598 41.657 73.1598 42.006C73.1598 42.265 73.104 42.5024 72.9925 42.7183C72.8846 42.9305 72.7263 43.1158 72.5177 43.2741C72.309 43.4288 72.059 43.5493 71.7676 43.6356C71.4798 43.722 71.156 43.7652 70.7963 43.7652C70.2674 43.7652 69.8196 43.6716 69.4526 43.4845C69.0857 43.2939 68.8069 43.0511 68.6162 42.7561C68.4291 42.4575 68.3356 42.1481 68.3356 41.8279H69.5929C69.6073 42.0689 69.6739 42.2614 69.7926 42.4053C69.9149 42.5456 70.066 42.6481 70.2459 42.7129C70.4293 42.774 70.6182 42.8046 70.8125 42.8046C71.0463 42.8046 71.2424 42.774 71.4006 42.7129C71.5589 42.6481 71.6794 42.5618 71.7622 42.4539C71.8449 42.3424 71.8863 42.2164 71.8863 42.0761ZM77.5739 42.0761C77.5739 41.9466 77.5415 41.8297 77.4768 41.7254C77.412 41.6175 77.2879 41.5203 77.1044 41.434C76.9245 41.3477 76.6583 41.2685 76.3058 41.1966C75.9964 41.1282 75.7122 41.0473 75.4532 40.9537C75.1978 40.8566 74.9783 40.7397 74.7948 40.603C74.6114 40.4663 74.4693 40.3044 74.3685 40.1173C74.2678 39.9303 74.2174 39.7144 74.2174 39.4698C74.2174 39.2323 74.2696 39.0075 74.3739 38.7953C74.4783 38.583 74.6276 38.3959 74.8218 38.2341C75.0161 38.0722 75.2517 37.9445 75.5287 37.8509C75.8093 37.7574 76.1223 37.7106 76.4677 37.7106C76.9569 37.7106 77.376 37.7934 77.725 37.9588C78.0775 38.1207 78.3473 38.342 78.5344 38.6226C78.7215 38.8996 78.815 39.2126 78.815 39.5615H77.5145C77.5145 39.4068 77.475 39.2629 77.3958 39.1298C77.3203 38.9931 77.2051 38.8834 77.0505 38.8007C76.8958 38.7143 76.7015 38.6711 76.4677 38.6711C76.2446 38.6711 76.0594 38.7071 75.9119 38.7791C75.768 38.8474 75.66 38.9374 75.5881 39.0489C75.5197 39.1604 75.4856 39.2827 75.4856 39.4158C75.4856 39.513 75.5035 39.6011 75.5395 39.6802C75.5791 39.7558 75.6438 39.8259 75.7338 39.8907C75.8237 39.9518 75.946 40.0094 76.1007 40.0634C76.259 40.1173 76.4569 40.1695 76.6943 40.2199C77.1404 40.3134 77.5235 40.4339 77.8437 40.5814C78.1675 40.7253 78.4157 40.9124 78.5884 41.1426C78.761 41.3692 78.8474 41.657 78.8474 42.006C78.8474 42.265 78.7916 42.5024 78.6801 42.7183C78.5722 42.9305 78.4139 43.1158 78.2052 43.2741C77.9966 43.4288 77.7466 43.5493 77.4552 43.6356C77.1674 43.722 76.8436 43.7652 76.4839 43.7652C75.955 43.7652 75.5071 43.6716 75.1402 43.4845C74.7733 43.2939 74.4945 43.0511 74.3038 42.7561C74.1167 42.4575 74.0232 42.1481 74.0232 41.8279H75.2805C75.2949 42.0689 75.3614 42.2614 75.4802 42.4053C75.6025 42.5456 75.7536 42.6481 75.9334 42.7129C76.1169 42.774 76.3058 42.8046 76.5 42.8046C76.7339 42.8046 76.9299 42.774 77.0882 42.7129C77.2465 42.6481 77.367 42.5618 77.4498 42.4539C77.5325 42.3424 77.5739 42.2164 77.5739 42.0761ZM82.56 43.7652C82.1283 43.7652 81.7379 43.695 81.389 43.5547C81.0436 43.4108 80.7486 43.2111 80.504 42.9557C80.263 42.7003 80.0777 42.3999 79.9482 42.0546C79.8187 41.7092 79.7539 41.3369 79.7539 40.9375V40.7217C79.7539 40.2648 79.8205 39.8511 79.9536 39.4806C80.0867 39.11 80.272 38.7935 80.5094 38.5308C80.7468 38.2646 81.0274 38.0614 81.3512 37.9211C81.675 37.7808 82.0257 37.7106 82.4035 37.7106C82.8208 37.7106 83.1859 37.7808 83.4989 37.9211C83.8119 38.0614 84.0709 38.2592 84.2759 38.5147C84.4846 38.7665 84.6393 39.0669 84.74 39.4158C84.8443 39.7648 84.8965 40.1497 84.8965 40.5706V41.1264H80.3853V40.1929H83.6122V40.0903C83.605 39.8565 83.5583 39.6371 83.4719 39.432C83.3892 39.227 83.2615 39.0615 83.0888 38.9356C82.9161 38.8096 82.6859 38.7467 82.3981 38.7467C82.1822 38.7467 81.9898 38.7935 81.8207 38.887C81.6552 38.9769 81.5167 39.1082 81.4052 39.2809C81.2937 39.4536 81.2073 39.6622 81.1462 39.9069C81.0886 40.1479 81.0598 40.4195 81.0598 40.7217V40.9375C81.0598 41.193 81.094 41.4304 81.1623 41.6498C81.2343 41.8657 81.3386 42.0546 81.4753 42.2164C81.612 42.3783 81.7775 42.506 81.9718 42.5996C82.166 42.6895 82.3873 42.7345 82.6355 42.7345C82.9485 42.7345 83.2273 42.6715 83.4719 42.5456C83.7165 42.4197 83.9288 42.2416 84.1087 42.0114L84.794 42.6751C84.6681 42.8586 84.5044 43.0349 84.3029 43.2039C84.1015 43.3694 83.855 43.5043 83.5637 43.6087C83.2759 43.713 82.9413 43.7652 82.56 43.7652ZM89.1865 42.0761C89.1865 41.9466 89.1541 41.8297 89.0894 41.7254C89.0246 41.6175 88.9005 41.5203 88.717 41.434C88.5371 41.3477 88.2709 41.2685 87.9184 41.1966C87.609 41.1282 87.3248 41.0473 87.0658 40.9537C86.8104 40.8566 86.5909 40.7397 86.4075 40.603C86.224 40.4663 86.0819 40.3044 85.9812 40.1173C85.8804 39.9303 85.8301 39.7144 85.8301 39.4698C85.8301 39.2323 85.8822 39.0075 85.9865 38.7953C86.0909 38.583 86.2402 38.3959 86.4344 38.2341C86.6287 38.0722 86.8643 37.9445 87.1413 37.8509C87.4219 37.7574 87.7349 37.7106 88.0803 37.7106C88.5695 37.7106 88.9886 37.7934 89.3376 37.9588C89.6901 38.1207 89.9599 38.342 90.147 38.6226C90.3341 38.8996 90.4276 39.2126 90.4276 39.5615H89.1271C89.1271 39.4068 89.0876 39.2629 89.0084 39.1298C88.9329 38.9931 88.8178 38.8834 88.6631 38.8007C88.5084 38.7143 88.3141 38.6711 88.0803 38.6711C87.8572 38.6711 87.672 38.7071 87.5245 38.7791C87.3806 38.8474 87.2726 38.9374 87.2007 39.0489C87.1323 39.1604 87.0982 39.2827 87.0982 39.4158C87.0982 39.513 87.1162 39.6011 87.1521 39.6802C87.1917 39.7558 87.2565 39.8259 87.3464 39.8907C87.4363 39.9518 87.5586 40.0094 87.7133 40.0634C87.8716 40.1173 88.0695 40.1695 88.3069 40.2199C88.753 40.3134 89.1361 40.4339 89.4563 40.5814C89.7801 40.7253 90.0283 40.9124 90.201 41.1426C90.3737 41.3692 90.46 41.657 90.46 42.006C90.46 42.265 90.4042 42.5024 90.2927 42.7183C90.1848 42.9305 90.0265 43.1158 89.8178 43.2741C89.6092 43.4288 89.3592 43.5493 89.0678 43.6356C88.78 43.722 88.4562 43.7652 88.0965 43.7652C87.5676 43.7652 87.1197 43.6716 86.7528 43.4845C86.3859 43.2939 86.1071 43.0511 85.9164 42.7561C85.7293 42.4575 85.6358 42.1481 85.6358 41.8279H86.8931C86.9075 42.0689 86.9741 42.2614 87.0928 42.4053C87.2151 42.5456 87.3662 42.6481 87.546 42.7129C87.7295 42.774 87.9184 42.8046 88.1126 42.8046C88.3465 42.8046 88.5425 42.774 88.7008 42.7129C88.8591 42.6481 88.9796 42.5618 89.0624 42.4539C89.1451 42.3424 89.1865 42.2164 89.1865 42.0761ZM94.8741 42.0761C94.8741 41.9466 94.8417 41.8297 94.7769 41.7254C94.7122 41.6175 94.5881 41.5203 94.4046 41.434C94.2247 41.3477 93.9585 41.2685 93.606 41.1966C93.2966 41.1282 93.0124 41.0473 92.7534 40.9537C92.498 40.8566 92.2785 40.7397 92.095 40.603C91.9116 40.4663 91.7695 40.3044 91.6687 40.1173C91.568 39.9303 91.5176 39.7144 91.5176 39.4698C91.5176 39.2323 91.5698 39.0075 91.6741 38.7953C91.7785 38.583 91.9278 38.3959 92.122 38.2341C92.3163 38.0722 92.5519 37.9445 92.8289 37.8509C93.1095 37.7574 93.4225 37.7106 93.7679 37.7106C94.2571 37.7106 94.6762 37.7934 95.0252 37.9588C95.3777 38.1207 95.6475 38.342 95.8346 38.6226C96.0217 38.8996 96.1152 39.2126 96.1152 39.5615H94.8147C94.8147 39.4068 94.7751 39.2629 94.696 39.1298C94.6205 38.9931 94.5053 38.8834 94.3506 38.8007C94.196 38.7143 94.0017 38.6711 93.7679 38.6711C93.5448 38.6711 93.3595 38.7071 93.212 38.7791C93.0681 38.8474 92.9602 38.9374 92.8883 39.0489C92.8199 39.1604 92.7857 39.2827 92.7857 39.4158C92.7857 39.513 92.8037 39.6011 92.8397 39.6802C92.8793 39.7558 92.944 39.8259 93.034 39.8907C93.1239 39.9518 93.2462 40.0094 93.4009 40.0634C93.5592 40.1173 93.7571 40.1695 93.9945 40.2199C94.4406 40.3134 94.8237 40.4339 95.1439 40.5814C95.4677 40.7253 95.7159 40.9124 95.8886 41.1426C96.0612 41.3692 96.1476 41.657 96.1476 42.006C96.1476 42.265 96.0918 42.5024 95.9803 42.7183C95.8724 42.9305 95.7141 43.1158 95.5054 43.2741C95.2968 43.4288 95.0468 43.5493 94.7554 43.6356C94.4676 43.722 94.1438 43.7652 93.784 43.7652C93.2552 43.7652 92.8073 43.6716 92.4404 43.4845C92.0735 43.2939 91.7946 43.0511 91.604 42.7561C91.4169 42.4575 91.3234 42.1481 91.3234 41.8279H92.5807C92.5951 42.0689 92.6616 42.2614 92.7804 42.4053C92.9027 42.5456 93.0538 42.6481 93.2336 42.7129C93.4171 42.774 93.606 42.8046 93.8002 42.8046C94.0341 42.8046 94.2301 42.774 94.3884 42.7129C94.5467 42.6481 94.6672 42.5618 94.75 42.4539C94.8327 42.3424 94.8741 42.2164 94.8741 42.0761ZM98.5867 39.0057V43.6572H97.2862V37.8185H98.5111L98.5867 39.0057ZM98.3762 40.522L97.9337 40.5166C97.9337 40.1137 97.9841 39.7414 98.0848 39.3996C98.1855 39.0579 98.333 38.7611 98.5273 38.5093C98.7216 38.2538 98.9626 38.0578 99.2504 37.9211C99.5418 37.7808 99.8781 37.7106 100.259 37.7106C100.526 37.7106 100.769 37.7502 100.988 37.8293C101.211 37.9049 101.403 38.0254 101.565 38.1909C101.731 38.3564 101.857 38.5686 101.943 38.8276C102.033 39.0867 102.078 39.3996 102.078 39.7666V43.6572H100.778V39.8799C100.778 39.5957 100.734 39.3726 100.648 39.2108C100.565 39.0489 100.445 38.9338 100.286 38.8654C100.132 38.7935 99.9465 38.7575 99.7306 38.7575C99.486 38.7575 99.2774 38.8043 99.1047 38.8978C98.9356 38.9913 98.7971 39.119 98.6892 39.2809C98.5813 39.4428 98.5021 39.6299 98.4517 39.8421C98.4014 40.0544 98.3762 40.281 98.3762 40.522ZM101.997 40.1767L101.387 40.3116C101.387 39.959 101.436 39.6263 101.533 39.3133C101.634 38.9967 101.779 38.7197 101.97 38.4823C102.164 38.2412 102.404 38.0524 102.688 37.9157C102.972 37.779 103.298 37.7106 103.664 37.7106C103.963 37.7106 104.229 37.752 104.463 37.8347C104.701 37.9139 104.902 38.0398 105.067 38.2125C105.233 38.3851 105.359 38.61 105.445 38.887C105.532 39.1604 105.575 39.4914 105.575 39.8799V43.6572H104.269V39.8745C104.269 39.5795 104.226 39.3511 104.139 39.1892C104.057 39.0273 103.938 38.9158 103.783 38.8546C103.628 38.7899 103.443 38.7575 103.227 38.7575C103.026 38.7575 102.848 38.7953 102.693 38.8708C102.542 38.9428 102.414 39.0453 102.31 39.1784C102.206 39.3079 102.127 39.4572 102.073 39.6263C102.022 39.7954 101.997 39.9788 101.997 40.1767ZM109.487 43.7652C109.055 43.7652 108.665 43.695 108.316 43.5547C107.971 43.4108 107.676 43.2111 107.431 42.9557C107.19 42.7003 107.005 42.3999 106.875 42.0546C106.746 41.7092 106.681 41.3369 106.681 40.9375V40.7217C106.681 40.2648 106.747 39.8511 106.881 39.4806C107.014 39.11 107.199 38.7935 107.436 38.5308C107.674 38.2646 107.954 38.0614 108.278 37.9211C108.602 37.7808 108.953 37.7106 109.33 37.7106C109.748 37.7106 110.113 37.7808 110.426 37.9211C110.739 38.0614 110.998 38.2592 111.203 38.5147C111.412 38.7665 111.566 39.0669 111.667 39.4158C111.771 39.7648 111.824 40.1497 111.824 40.5706V41.1264H107.312V40.1929H110.539V40.0903C110.532 39.8565 110.485 39.6371 110.399 39.432C110.316 39.227 110.188 39.0615 110.016 38.9356C109.843 38.8096 109.613 38.7467 109.325 38.7467C109.109 38.7467 108.917 38.7935 108.748 38.887C108.582 38.9769 108.444 39.1082 108.332 39.2809C108.221 39.4536 108.134 39.6622 108.073 39.9069C108.016 40.1479 107.987 40.4195 107.987 40.7217V40.9375C107.987 41.193 108.021 41.4304 108.089 41.6498C108.161 41.8657 108.266 42.0546 108.402 42.2164C108.539 42.3783 108.705 42.506 108.899 42.5996C109.093 42.6895 109.314 42.7345 109.563 42.7345C109.875 42.7345 110.154 42.6715 110.399 42.5456C110.644 42.4197 110.856 42.2416 111.036 42.0114L111.721 42.6751C111.595 42.8586 111.431 43.0349 111.23 43.2039C111.028 43.3694 110.782 43.5043 110.491 43.6087C110.203 43.713 109.868 43.7652 109.487 43.7652ZM114.128 39.0651V43.6572H112.827V37.8185H114.052L114.128 39.0651ZM113.896 40.522L113.475 40.5166C113.478 40.1029 113.536 39.7234 113.647 39.378C113.763 39.0327 113.921 38.7359 114.122 38.4877C114.327 38.2394 114.572 38.0488 114.856 37.9157C115.14 37.779 115.457 37.7106 115.806 37.7106C116.087 37.7106 116.34 37.7502 116.567 37.8293C116.797 37.9049 116.993 38.029 117.155 38.2017C117.32 38.3744 117.446 38.5992 117.533 38.8762C117.619 39.1496 117.662 39.486 117.662 39.8853V43.6572H116.356V39.8799C116.356 39.5993 116.315 39.378 116.232 39.2162C116.153 39.0507 116.036 38.9338 115.881 38.8654C115.73 38.7935 115.541 38.7575 115.315 38.7575C115.092 38.7575 114.892 38.8043 114.716 38.8978C114.54 38.9913 114.39 39.119 114.268 39.2809C114.149 39.4428 114.058 39.6299 113.993 39.8421C113.928 40.0544 113.896 40.281 113.896 40.522ZM121.666 37.8185V38.7683H118.374V37.8185H121.666ZM119.324 36.3886H120.625V42.0438C120.625 42.2236 120.65 42.3621 120.7 42.4593C120.754 42.5528 120.828 42.6158 120.921 42.6481C121.015 42.6805 121.125 42.6967 121.251 42.6967C121.341 42.6967 121.427 42.6913 121.51 42.6805C121.592 42.6697 121.659 42.6589 121.709 42.6481L121.715 43.641C121.607 43.6734 121.481 43.7022 121.337 43.7274C121.197 43.7526 121.035 43.7652 120.851 43.7652C120.553 43.7652 120.288 43.713 120.058 43.6087C119.828 43.5007 119.648 43.3263 119.518 43.0852C119.389 42.8442 119.324 42.524 119.324 42.1247V36.3886Z" fill="white"/>
<path d="M29.8909 195.952V197.559H24.6713V195.952H29.8909ZM25.2825 191.879V201.879H23.2222V191.879H25.2825ZM31.3606 191.879V201.879H29.3071V191.879H31.3606ZM32.7136 198.239V198.095C32.7136 197.55 32.7914 197.048 32.9471 196.591C33.1028 196.128 33.3294 195.728 33.627 195.389C33.9246 195.05 34.2909 194.787 34.7259 194.599C35.1608 194.407 35.6599 194.311 36.2231 194.311C36.7862 194.311 37.2876 194.407 37.7271 194.599C38.1667 194.787 38.5353 195.05 38.8329 195.389C39.1351 195.728 39.364 196.128 39.5197 196.591C39.6753 197.048 39.7532 197.55 39.7532 198.095V198.239C39.7532 198.779 39.6753 199.281 39.5197 199.743C39.364 200.201 39.1351 200.601 38.8329 200.945C38.5353 201.284 38.169 201.547 37.734 201.735C37.299 201.922 36.8 202.016 36.2368 202.016C35.6736 202.016 35.1723 201.922 34.7327 201.735C34.2978 201.547 33.9292 201.284 33.627 200.945C33.3294 200.601 33.1028 200.201 32.9471 199.743C32.7914 199.281 32.7136 198.779 32.7136 198.239ZM34.6915 198.095V198.239C34.6915 198.55 34.719 198.841 34.7739 199.111C34.8289 199.381 34.9159 199.619 35.0349 199.825C35.1585 200.027 35.3188 200.185 35.5157 200.299C35.7126 200.414 35.9529 200.471 36.2368 200.471C36.5115 200.471 36.7473 200.414 36.9442 200.299C37.1411 200.185 37.299 200.027 37.4181 199.825C37.5371 199.619 37.6241 199.381 37.6791 199.111C37.7386 198.841 37.7683 198.55 37.7683 198.239V198.095C37.7683 197.793 37.7386 197.509 37.6791 197.243C37.6241 196.973 37.5348 196.735 37.4112 196.529C37.2922 196.318 37.1342 196.153 36.9373 196.034C36.7404 195.915 36.5024 195.856 36.2231 195.856C35.9438 195.856 35.7057 195.915 35.5088 196.034C35.3165 196.153 35.1585 196.318 35.0349 196.529C34.9159 196.735 34.8289 196.973 34.7739 197.243C34.719 197.509 34.6915 197.793 34.6915 198.095ZM43.0909 199.956L44.6362 194.448H45.893L45.4878 196.611L43.9426 201.879H42.8918L43.0909 199.956ZM42.308 194.448L43.4137 199.949L43.5168 201.879H42.2805L40.3987 194.448H42.308ZM47.3078 199.86L48.3861 194.448H50.3022L48.4204 201.879H47.1911L47.3078 199.86ZM46.0647 194.448L47.6031 199.915L47.8161 201.879H46.7584L45.2131 196.618L44.8217 194.448H46.0647ZM56.9229 199.956L58.4681 194.448H59.725L59.3198 196.611L57.7745 201.879H56.7237L56.9229 199.956ZM56.1399 194.448L57.2457 199.949L57.3487 201.879H56.1125L54.2307 194.448H56.1399ZM61.1397 199.86L62.218 194.448H64.1341L62.2523 201.879H61.023L61.1397 199.86ZM59.8967 194.448L61.4351 199.915L61.648 201.879H60.5903L59.045 196.618L58.6536 194.448H59.8967ZM69.1408 200.203V196.893C69.1408 196.655 69.1019 196.451 69.0241 196.282C68.9462 196.108 68.8249 195.973 68.6601 195.876C68.4998 195.78 68.2915 195.732 68.0351 195.732C67.8153 195.732 67.6253 195.771 67.4651 195.849C67.3048 195.922 67.1812 196.03 67.0942 196.172C67.0072 196.309 66.9637 196.472 66.9637 196.659H64.9858C64.9858 196.343 65.059 196.043 65.2055 195.76C65.352 195.476 65.5649 195.226 65.8442 195.011C66.1235 194.791 66.4555 194.62 66.8401 194.496C67.2293 194.372 67.6642 194.311 68.145 194.311C68.7219 194.311 69.2347 194.407 69.6834 194.599C70.1321 194.791 70.4846 195.08 70.741 195.464C71.002 195.849 71.1325 196.33 71.1325 196.907V200.086C71.1325 200.494 71.1577 200.828 71.2081 201.089C71.2584 201.346 71.3317 201.57 71.4278 201.762V201.879H69.4293C69.3331 201.677 69.2599 201.426 69.2095 201.123C69.1637 200.817 69.1408 200.51 69.1408 200.203ZM69.4018 197.353L69.4155 198.472H68.3098C68.0488 198.472 67.8222 198.502 67.6299 198.562C67.4376 198.621 67.2796 198.706 67.156 198.816C67.0324 198.921 66.9408 199.045 66.8813 199.187C66.8263 199.329 66.7989 199.484 66.7989 199.654C66.7989 199.823 66.8378 199.977 66.9156 200.114C66.9935 200.247 67.1056 200.352 67.2522 200.43C67.3987 200.503 67.5704 200.54 67.7672 200.54C68.0649 200.54 68.3235 200.48 68.5433 200.361C68.7631 200.242 68.9325 200.096 69.0515 199.922C69.1752 199.748 69.2393 199.583 69.2438 199.427L69.7658 200.265C69.6925 200.453 69.5918 200.647 69.4636 200.849C69.34 201.05 69.182 201.24 68.9897 201.419C68.7974 201.593 68.5662 201.737 68.2961 201.851C68.0259 201.961 67.7054 202.016 67.3346 202.016C66.863 202.016 66.4349 201.922 66.0503 201.735C65.6703 201.542 65.3681 201.279 65.1437 200.945C64.9239 200.606 64.8141 200.221 64.8141 199.791C64.8141 199.402 64.8873 199.056 65.0338 198.754C65.1803 198.452 65.3955 198.198 65.6794 197.992C65.9679 197.781 66.3273 197.623 66.7577 197.518C67.1881 197.408 67.6871 197.353 68.2549 197.353H69.4018ZM76.6749 199.825C76.6749 199.683 76.6337 199.555 76.5513 199.441C76.4689 199.326 76.3155 199.221 76.0911 199.125C75.8713 199.024 75.5531 198.933 75.1365 198.85C74.761 198.768 74.4108 198.665 74.0857 198.541C73.7652 198.413 73.4859 198.26 73.2478 198.081C73.0143 197.902 72.8312 197.692 72.6984 197.449C72.5656 197.202 72.4992 196.92 72.4992 196.604C72.4992 196.293 72.5656 196 72.6984 195.725C72.8357 195.451 73.0303 195.208 73.2822 194.997C73.5386 194.782 73.8499 194.615 74.2162 194.496C74.5871 194.372 75.0037 194.311 75.4661 194.311C76.1117 194.311 76.6657 194.414 77.1282 194.62C77.5952 194.826 77.9523 195.109 78.1996 195.471C78.4514 195.828 78.5773 196.236 78.5773 196.694H76.5993C76.5993 196.501 76.5581 196.33 76.4757 196.179C76.3979 196.023 76.2743 195.902 76.1049 195.815C75.94 195.723 75.7248 195.677 75.4593 195.677C75.2395 195.677 75.0495 195.716 74.8892 195.794C74.729 195.867 74.6054 195.968 74.5184 196.096C74.436 196.22 74.3948 196.357 74.3948 196.508C74.3948 196.623 74.4176 196.726 74.4634 196.817C74.5138 196.904 74.5939 196.984 74.7038 197.058C74.8137 197.131 74.9556 197.2 75.1296 197.264C75.3082 197.323 75.528 197.378 75.7889 197.429C76.3246 197.538 76.8031 197.683 77.2243 197.861C77.6455 198.035 77.9798 198.273 78.227 198.575C78.4743 198.873 78.5979 199.265 78.5979 199.75C78.5979 200.08 78.5246 200.382 78.3781 200.656C78.2316 200.931 78.021 201.172 77.7463 201.378C77.4716 201.579 77.1419 201.737 76.7573 201.851C76.3773 201.961 75.9492 202.016 75.473 202.016C74.7816 202.016 74.1956 201.893 73.7148 201.645C73.2387 201.398 72.8769 201.085 72.6297 200.704C72.387 200.32 72.2657 199.926 72.2657 199.523H74.1406C74.1498 199.793 74.2185 200.011 74.3467 200.176C74.4795 200.341 74.6466 200.46 74.848 200.533C75.0541 200.606 75.2761 200.643 75.5142 200.643C75.7706 200.643 75.9835 200.608 76.1529 200.54C76.3223 200.466 76.4505 200.37 76.5375 200.251C76.6291 200.128 76.6749 199.986 76.6749 199.825ZM87.0248 194.448V195.849H82.698V194.448H87.0248ZM83.7694 192.614H85.7474V199.64C85.7474 199.855 85.7748 200.02 85.8298 200.134C85.8893 200.249 85.9763 200.329 86.0907 200.375C86.2052 200.416 86.3494 200.437 86.5234 200.437C86.647 200.437 86.7569 200.432 86.8531 200.423C86.9538 200.409 87.0385 200.395 87.1072 200.382L87.1141 201.838C86.9447 201.893 86.7615 201.936 86.5646 201.968C86.3678 202 86.1503 202.016 85.9122 202.016C85.4772 202.016 85.0972 201.945 84.7721 201.803C84.4516 201.657 84.2044 201.423 84.0304 201.103C83.8564 200.782 83.7694 200.361 83.7694 199.839V192.614ZM90.081 191.33V201.879H88.103V191.33H90.081ZM89.7994 197.902H89.2568C89.2614 197.385 89.3301 196.909 89.4629 196.474C89.5957 196.034 89.7857 195.654 90.0329 195.334C90.2802 195.009 90.5755 194.757 90.9189 194.578C91.2668 194.4 91.6514 194.311 92.0727 194.311C92.439 194.311 92.7709 194.363 93.0685 194.468C93.3707 194.569 93.6294 194.734 93.8446 194.963C94.0644 195.187 94.2338 195.483 94.3528 195.849C94.4719 196.215 94.5314 196.659 94.5314 197.181V201.879H92.5397V197.168C92.5397 196.838 92.4916 196.579 92.3955 196.391C92.3039 196.199 92.1688 196.064 91.9903 195.986C91.8163 195.904 91.6011 195.863 91.3447 195.863C91.0608 195.863 90.8181 195.915 90.6167 196.021C90.4198 196.126 90.2618 196.272 90.1428 196.46C90.0238 196.643 89.9368 196.858 89.8818 197.106C89.8269 197.353 89.7994 197.619 89.7994 197.902ZM99.4557 202.016C98.8787 202.016 98.3614 201.925 97.9035 201.742C97.4457 201.554 97.0565 201.295 96.736 200.965C96.42 200.636 96.1774 200.254 96.008 199.819C95.8386 199.379 95.7539 198.912 95.7539 198.417V198.143C95.7539 197.58 95.834 197.065 95.9942 196.598C96.1545 196.13 96.3834 195.725 96.681 195.382C96.9832 195.038 97.3495 194.775 97.7799 194.592C98.2103 194.404 98.6956 194.311 99.2359 194.311C99.7624 194.311 100.229 194.397 100.637 194.571C101.044 194.745 101.386 194.993 101.66 195.313C101.94 195.634 102.15 196.018 102.292 196.467C102.434 196.911 102.505 197.406 102.505 197.95V198.775H96.5986V197.456H100.561V197.305C100.561 197.03 100.511 196.785 100.41 196.57C100.314 196.35 100.168 196.176 99.9707 196.048C99.7739 195.92 99.522 195.856 99.2153 195.856C98.9543 195.856 98.7299 195.913 98.5422 196.027C98.3545 196.142 98.2011 196.302 98.0821 196.508C97.9676 196.714 97.8806 196.957 97.8211 197.236C97.7662 197.511 97.7387 197.813 97.7387 198.143V198.417C97.7387 198.715 97.7799 198.99 97.8623 199.242C97.9493 199.493 98.0706 199.711 98.2263 199.894C98.3866 200.077 98.5789 200.219 98.8032 200.32C99.0321 200.421 99.2908 200.471 99.5793 200.471C99.9364 200.471 100.268 200.402 100.575 200.265C100.886 200.123 101.154 199.91 101.379 199.626L102.34 200.67C102.184 200.895 101.972 201.11 101.701 201.316C101.436 201.522 101.115 201.691 100.74 201.824C100.364 201.952 99.9364 202.016 99.4557 202.016ZM111.358 191.879V201.879H109.304V191.879H111.358ZM114.434 191.879V193.493H106.275V191.879H114.434ZM116.982 196.069V201.879H115.005V194.448H116.866L116.982 196.069ZM119.221 194.4L119.187 196.234C119.091 196.22 118.974 196.208 118.837 196.199C118.704 196.185 118.583 196.179 118.473 196.179C118.194 196.179 117.951 196.215 117.745 196.288C117.543 196.357 117.374 196.46 117.237 196.598C117.104 196.735 117.003 196.902 116.934 197.099C116.87 197.296 116.834 197.52 116.825 197.772L116.426 197.648C116.426 197.168 116.474 196.726 116.57 196.323C116.667 195.915 116.806 195.56 116.989 195.258C117.177 194.956 117.406 194.723 117.676 194.558C117.946 194.393 118.255 194.311 118.603 194.311C118.713 194.311 118.825 194.32 118.94 194.338C119.054 194.352 119.148 194.372 119.221 194.4ZM123.933 200.203V196.893C123.933 196.655 123.894 196.451 123.816 196.282C123.738 196.108 123.617 195.973 123.452 195.876C123.292 195.78 123.083 195.732 122.827 195.732C122.607 195.732 122.417 195.771 122.257 195.849C122.097 195.922 121.973 196.03 121.886 196.172C121.799 196.309 121.756 196.472 121.756 196.659H119.778C119.778 196.343 119.851 196.043 119.997 195.76C120.144 195.476 120.357 195.226 120.636 195.011C120.915 194.791 121.247 194.62 121.632 194.496C122.021 194.372 122.456 194.311 122.937 194.311C123.514 194.311 124.027 194.407 124.475 194.599C124.924 194.791 125.277 195.08 125.533 195.464C125.794 195.849 125.924 196.33 125.924 196.907V200.086C125.924 200.494 125.95 200.828 126 201.089C126.05 201.346 126.124 201.57 126.22 201.762V201.879H124.221C124.125 201.677 124.052 201.426 124.001 201.123C123.956 200.817 123.933 200.51 123.933 200.203ZM124.194 197.353L124.207 198.472H123.102C122.841 198.472 122.614 198.502 122.422 198.562C122.23 198.621 122.072 198.706 121.948 198.816C121.824 198.921 121.733 199.045 121.673 199.187C121.618 199.329 121.591 199.484 121.591 199.654C121.591 199.823 121.63 199.977 121.708 200.114C121.785 200.247 121.898 200.352 122.044 200.43C122.191 200.503 122.362 200.54 122.559 200.54C122.857 200.54 123.116 200.48 123.335 200.361C123.555 200.242 123.724 200.096 123.843 199.922C123.967 199.748 124.031 199.583 124.036 199.427L124.558 200.265C124.484 200.453 124.384 200.647 124.256 200.849C124.132 201.05 123.974 201.24 123.782 201.419C123.589 201.593 123.358 201.737 123.088 201.851C122.818 201.961 122.497 202.016 122.127 202.016C121.655 202.016 121.227 201.922 120.842 201.735C120.462 201.542 120.16 201.279 119.936 200.945C119.716 200.606 119.606 200.221 119.606 199.791C119.606 199.402 119.679 199.056 119.826 198.754C119.972 198.452 120.187 198.198 120.471 197.992C120.76 197.781 121.119 197.623 121.55 197.518C121.98 197.408 122.479 197.353 123.047 197.353H124.194ZM129.537 194.448V201.879H127.552V194.448H129.537ZM127.429 192.511C127.429 192.223 127.529 191.985 127.731 191.797C127.932 191.609 128.202 191.515 128.541 191.515C128.875 191.515 129.143 191.609 129.345 191.797C129.551 191.985 129.654 192.223 129.654 192.511C129.654 192.8 129.551 193.038 129.345 193.225C129.143 193.413 128.875 193.507 128.541 193.507C128.202 193.507 127.932 193.413 127.731 193.225C127.529 193.038 127.429 192.8 127.429 192.511ZM133.108 196.034V201.879H131.13V194.448H132.985L133.108 196.034ZM132.82 197.902H132.284C132.284 197.353 132.355 196.858 132.497 196.419C132.639 195.975 132.838 195.597 133.095 195.286C133.351 194.97 133.655 194.729 134.008 194.565C134.365 194.395 134.763 194.311 135.203 194.311C135.551 194.311 135.869 194.361 136.158 194.462C136.446 194.562 136.693 194.723 136.899 194.942C137.11 195.162 137.27 195.453 137.38 195.815C137.495 196.176 137.552 196.618 137.552 197.14V201.879H135.56V197.133C135.56 196.804 135.514 196.547 135.423 196.364C135.331 196.181 135.196 196.053 135.018 195.979C134.844 195.902 134.628 195.863 134.372 195.863C134.106 195.863 133.875 195.915 133.678 196.021C133.486 196.126 133.326 196.272 133.198 196.46C133.074 196.643 132.98 196.858 132.916 197.106C132.852 197.353 132.82 197.619 132.82 197.902ZM141.144 194.448V201.879H139.159V194.448H141.144ZM139.035 192.511C139.035 192.223 139.136 191.985 139.337 191.797C139.539 191.609 139.809 191.515 140.148 191.515C140.482 191.515 140.75 191.609 140.951 191.797C141.157 191.985 141.26 192.223 141.26 192.511C141.26 192.8 141.157 193.038 140.951 193.225C140.75 193.413 140.482 193.507 140.148 193.507C139.809 193.507 139.539 193.413 139.337 193.225C139.136 193.038 139.035 192.8 139.035 192.511ZM144.715 196.034V201.879H142.737V194.448H144.591L144.715 196.034ZM144.427 197.902H143.891C143.891 197.353 143.962 196.858 144.104 196.419C144.246 195.975 144.445 195.597 144.701 195.286C144.958 194.97 145.262 194.729 145.615 194.565C145.972 194.395 146.37 194.311 146.81 194.311C147.158 194.311 147.476 194.361 147.764 194.462C148.053 194.562 148.3 194.723 148.506 194.942C148.717 195.162 148.877 195.453 148.987 195.815C149.101 196.176 149.159 196.618 149.159 197.14V201.879H147.167V197.133C147.167 196.804 147.121 196.547 147.029 196.364C146.938 196.181 146.803 196.053 146.624 195.979C146.45 195.902 146.235 195.863 145.979 195.863C145.713 195.863 145.482 195.915 145.285 196.021C145.093 196.126 144.932 196.272 144.804 196.46C144.681 196.643 144.587 196.858 144.523 197.106C144.459 197.353 144.427 197.619 144.427 197.902ZM155.367 194.448H157.16V201.632C157.16 202.309 157.008 202.884 156.706 203.356C156.409 203.832 155.992 204.191 155.456 204.434C154.921 204.681 154.298 204.805 153.588 204.805C153.277 204.805 152.947 204.763 152.599 204.681C152.256 204.599 151.926 204.47 151.61 204.296C151.299 204.122 151.038 203.903 150.827 203.637L151.7 202.47C151.929 202.735 152.194 202.941 152.496 203.088C152.798 203.239 153.133 203.314 153.499 203.314C153.856 203.314 154.158 203.248 154.406 203.115C154.653 202.987 154.843 202.797 154.976 202.545C155.108 202.298 155.175 201.998 155.175 201.645V196.165L155.367 194.448ZM150.367 198.253V198.108C150.367 197.541 150.436 197.026 150.573 196.563C150.715 196.096 150.914 195.696 151.171 195.361C151.432 195.027 151.748 194.768 152.119 194.585C152.489 194.402 152.908 194.311 153.375 194.311C153.87 194.311 154.284 194.402 154.618 194.585C154.953 194.768 155.227 195.029 155.443 195.368C155.658 195.702 155.825 196.098 155.944 196.556C156.068 197.01 156.164 197.506 156.232 198.047V198.363C156.164 198.88 156.061 199.361 155.923 199.805C155.786 200.249 155.605 200.638 155.381 200.972C155.156 201.302 154.877 201.558 154.543 201.742C154.213 201.925 153.82 202.016 153.362 202.016C152.904 202.016 152.489 201.922 152.119 201.735C151.752 201.547 151.439 201.284 151.178 200.945C150.917 200.606 150.715 200.208 150.573 199.75C150.436 199.292 150.367 198.793 150.367 198.253ZM152.345 198.108V198.253C152.345 198.559 152.375 198.846 152.434 199.111C152.494 199.377 152.586 199.613 152.709 199.819C152.837 200.02 152.995 200.178 153.183 200.292C153.375 200.402 153.602 200.457 153.863 200.457C154.225 200.457 154.52 200.382 154.749 200.231C154.978 200.075 155.15 199.862 155.264 199.592C155.379 199.322 155.445 199.01 155.463 198.658V197.758C155.454 197.47 155.415 197.211 155.346 196.982C155.278 196.749 155.182 196.549 155.058 196.385C154.934 196.22 154.774 196.092 154.577 196C154.38 195.908 154.147 195.863 153.877 195.863C153.616 195.863 153.389 195.922 153.197 196.041C153.009 196.156 152.851 196.314 152.723 196.515C152.599 196.717 152.505 196.955 152.441 197.229C152.377 197.499 152.345 197.793 152.345 198.108ZM167.53 199.262C167.53 199.084 167.503 198.923 167.448 198.781C167.397 198.635 167.301 198.502 167.159 198.383C167.017 198.26 166.818 198.138 166.562 198.019C166.305 197.9 165.973 197.776 165.566 197.648C165.113 197.502 164.682 197.337 164.275 197.154C163.872 196.971 163.515 196.758 163.203 196.515C162.897 196.268 162.654 195.982 162.475 195.657C162.301 195.332 162.214 194.954 162.214 194.523C162.214 194.107 162.306 193.729 162.489 193.39C162.672 193.047 162.929 192.754 163.258 192.511C163.588 192.264 163.977 192.074 164.426 191.941C164.879 191.808 165.376 191.742 165.916 191.742C166.653 191.742 167.297 191.875 167.846 192.14C168.395 192.406 168.821 192.77 169.123 193.232C169.43 193.695 169.584 194.224 169.584 194.819H167.537C167.537 194.526 167.475 194.269 167.352 194.05C167.232 193.825 167.049 193.649 166.802 193.521C166.559 193.392 166.253 193.328 165.882 193.328C165.525 193.328 165.227 193.383 164.989 193.493C164.751 193.599 164.572 193.743 164.453 193.926C164.334 194.104 164.275 194.306 164.275 194.53C164.275 194.7 164.316 194.853 164.398 194.99C164.485 195.128 164.614 195.256 164.783 195.375C164.952 195.494 165.161 195.606 165.408 195.712C165.655 195.817 165.941 195.92 166.266 196.021C166.811 196.185 167.29 196.371 167.702 196.577C168.118 196.783 168.466 197.014 168.746 197.271C169.025 197.527 169.236 197.818 169.378 198.143C169.519 198.468 169.59 198.836 169.59 199.249C169.59 199.683 169.506 200.073 169.336 200.416C169.167 200.759 168.922 201.05 168.601 201.288C168.281 201.526 167.899 201.707 167.455 201.831C167.01 201.954 166.514 202.016 165.964 202.016C165.47 202.016 164.982 201.952 164.501 201.824C164.021 201.691 163.583 201.492 163.19 201.226C162.8 200.961 162.489 200.622 162.256 200.21C162.022 199.798 161.905 199.31 161.905 198.747H163.973C163.973 199.058 164.021 199.322 164.117 199.537C164.213 199.752 164.348 199.926 164.522 200.059C164.701 200.192 164.911 200.288 165.154 200.347C165.401 200.407 165.671 200.437 165.964 200.437C166.321 200.437 166.614 200.386 166.843 200.286C167.077 200.185 167.249 200.045 167.358 199.867C167.473 199.688 167.53 199.487 167.53 199.262ZM172.956 194.448V201.879H170.971V194.448H172.956ZM170.847 192.511C170.847 192.223 170.948 191.985 171.149 191.797C171.351 191.609 171.621 191.515 171.96 191.515C172.294 191.515 172.562 191.609 172.763 191.797C172.969 191.985 173.072 192.223 173.072 192.511C173.072 192.8 172.969 193.038 172.763 193.225C172.562 193.413 172.294 193.507 171.96 193.507C171.621 193.507 171.351 193.413 171.149 193.225C170.948 193.038 170.847 192.8 170.847 192.511ZM178.23 194.448V195.849H173.903V194.448H178.23ZM174.975 192.614H176.953V199.64C176.953 199.855 176.98 200.02 177.035 200.134C177.095 200.249 177.182 200.329 177.296 200.375C177.411 200.416 177.555 200.437 177.729 200.437C177.853 200.437 177.962 200.432 178.059 200.423C178.159 200.409 178.244 200.395 178.313 200.382L178.32 201.838C178.15 201.893 177.967 201.936 177.77 201.968C177.573 202 177.356 202.016 177.118 202.016C176.683 202.016 176.303 201.945 175.978 201.803C175.657 201.657 175.41 201.423 175.236 201.103C175.062 200.782 174.975 200.361 174.975 199.839V192.614ZM182.777 202.016C182.2 202.016 181.682 201.925 181.225 201.742C180.767 201.554 180.378 201.295 180.057 200.965C179.741 200.636 179.499 200.254 179.329 199.819C179.16 199.379 179.075 198.912 179.075 198.417V198.143C179.075 197.58 179.155 197.065 179.315 196.598C179.476 196.13 179.705 195.725 180.002 195.382C180.304 195.038 180.671 194.775 181.101 194.592C181.531 194.404 182.017 194.311 182.557 194.311C183.084 194.311 183.551 194.397 183.958 194.571C184.366 194.745 184.707 194.993 184.981 195.313C185.261 195.634 185.471 196.018 185.613 196.467C185.755 196.911 185.826 197.406 185.826 197.95V198.775H179.92V197.456H183.883V197.305C183.883 197.03 183.832 196.785 183.731 196.57C183.635 196.35 183.489 196.176 183.292 196.048C183.095 195.92 182.843 195.856 182.536 195.856C182.275 195.856 182.051 195.913 181.863 196.027C181.676 196.142 181.522 196.302 181.403 196.508C181.289 196.714 181.202 196.957 181.142 197.236C181.087 197.511 181.06 197.813 181.06 198.143V198.417C181.06 198.715 181.101 198.99 181.183 199.242C181.27 199.493 181.392 199.711 181.547 199.894C181.708 200.077 181.9 200.219 182.124 200.32C182.353 200.421 182.612 200.471 182.9 200.471C183.258 200.471 183.589 200.402 183.896 200.265C184.208 200.123 184.475 199.91 184.7 199.626L185.661 200.67C185.506 200.895 185.293 201.11 185.023 201.316C184.757 201.522 184.437 201.691 184.061 201.824C183.686 201.952 183.258 202.016 182.777 202.016ZM190.325 198.823H188.573C188.578 198.411 188.61 198.056 188.669 197.758C188.734 197.456 188.841 197.184 188.992 196.941C189.148 196.698 189.354 196.458 189.61 196.22C189.826 196.027 190.013 195.844 190.173 195.67C190.334 195.496 190.46 195.318 190.551 195.135C190.643 194.947 190.689 194.739 190.689 194.51C190.689 194.244 190.647 194.024 190.565 193.85C190.487 193.672 190.368 193.537 190.208 193.445C190.052 193.354 189.855 193.308 189.617 193.308C189.42 193.308 189.237 193.351 189.068 193.438C188.898 193.521 188.759 193.649 188.649 193.823C188.544 193.997 188.489 194.226 188.484 194.51H186.492C186.506 193.882 186.65 193.365 186.925 192.958C187.204 192.545 187.577 192.241 188.044 192.044C188.511 191.843 189.036 191.742 189.617 191.742C190.258 191.742 190.808 191.847 191.265 192.058C191.723 192.264 192.074 192.568 192.316 192.971C192.559 193.37 192.68 193.855 192.68 194.427C192.68 194.826 192.602 195.18 192.447 195.492C192.291 195.799 192.087 196.085 191.836 196.35C191.584 196.616 191.307 196.891 191.004 197.174C190.744 197.408 190.565 197.653 190.469 197.909C190.377 198.166 190.329 198.47 190.325 198.823ZM188.367 200.945C188.367 200.652 188.468 200.409 188.669 200.217C188.871 200.02 189.141 199.922 189.48 199.922C189.814 199.922 190.082 200.02 190.283 200.217C190.489 200.409 190.592 200.652 190.592 200.945C190.592 201.229 190.489 201.469 190.283 201.666C190.082 201.863 189.814 201.961 189.48 201.961C189.141 201.961 188.871 201.863 188.669 201.666C188.468 201.469 188.367 201.229 188.367 200.945Z" fill="#242429"/>
<path d="M62.7002 210.761L64.1837 213.629L65.6711 210.761H66.5305L64.5604 214.34V216.475H63.803V214.34L61.8329 210.761H62.7002ZM66.7032 214.399V214.308C66.7032 214.002 66.7477 213.718 66.8367 213.457C66.9256 213.192 67.0538 212.963 67.2213 212.77C67.3887 212.574 67.5915 212.422 67.8296 212.315C68.0676 212.205 68.3345 212.15 68.6302 212.15C68.9284 212.15 69.1966 212.205 69.4347 212.315C69.6754 212.422 69.8795 212.574 70.0469 212.77C70.217 212.963 70.3465 213.192 70.4354 213.457C70.5244 213.718 70.5689 214.002 70.5689 214.308V214.399C70.5689 214.705 70.5244 214.989 70.4354 215.25C70.3465 215.512 70.217 215.741 70.0469 215.937C69.8795 216.131 69.6767 216.282 69.4386 216.392C69.2031 216.499 68.9363 216.553 68.638 216.553C68.3397 216.553 68.0716 216.499 67.8335 216.392C67.5954 216.282 67.3913 216.131 67.2213 215.937C67.0538 215.741 66.9256 215.512 66.8367 215.25C66.7477 214.989 66.7032 214.705 66.7032 214.399ZM67.4293 214.308V214.399C67.4293 214.61 67.4541 214.811 67.5038 214.999C67.5535 215.185 67.6281 215.35 67.7275 215.493C67.8296 215.637 67.9565 215.751 68.1082 215.835C68.2599 215.916 68.4366 215.957 68.638 215.957C68.8368 215.957 69.0108 215.916 69.16 215.835C69.3117 215.751 69.4373 215.637 69.5367 215.493C69.6361 215.35 69.7107 215.185 69.7604 214.999C69.8127 214.811 69.8389 214.61 69.8389 214.399V214.308C69.8389 214.099 69.8127 213.901 69.7604 213.716C69.7107 213.527 69.6348 213.361 69.5328 213.217C69.4334 213.071 69.3078 212.956 69.156 212.872C69.0069 212.788 68.8316 212.746 68.6302 212.746C68.4313 212.746 68.256 212.788 68.1043 212.872C67.9551 212.956 67.8296 213.071 67.7275 213.217C67.6281 213.361 67.5535 213.527 67.5038 213.716C67.4541 213.901 67.4293 214.099 67.4293 214.308ZM74.0774 215.493V212.228H74.8073V216.475H74.1127L74.0774 215.493ZM74.2147 214.599L74.5169 214.591C74.5169 214.873 74.4868 215.135 74.4267 215.376C74.3691 215.614 74.2749 215.821 74.1441 215.996C74.0133 216.171 73.8419 216.308 73.63 216.408C73.4181 216.505 73.1603 216.553 72.8568 216.553C72.6502 216.553 72.4605 216.523 72.2878 216.463C72.1177 216.403 71.9712 216.31 71.8483 216.184C71.7253 216.059 71.6298 215.895 71.5618 215.694C71.4964 215.492 71.4636 215.25 71.4636 214.968V212.228H72.1897V214.975C72.1897 215.166 72.2106 215.325 72.2525 215.45C72.297 215.573 72.3558 215.671 72.4291 215.745C72.505 215.815 72.5887 215.865 72.6802 215.894C72.7744 215.923 72.8712 215.937 72.9707 215.937C73.2794 215.937 73.524 215.878 73.7045 215.76C73.8851 215.64 74.0146 215.479 74.0931 215.278C74.1742 215.074 74.2147 214.847 74.2147 214.599ZM76.6401 212.895V216.475H75.914V212.228H76.6204L76.6401 212.895ZM77.9666 212.205L77.9626 212.88C77.9025 212.867 77.8449 212.859 77.79 212.856C77.7376 212.851 77.6774 212.848 77.6094 212.848C77.442 212.848 77.2942 212.875 77.166 212.927C77.0378 212.979 76.9292 213.052 76.8402 213.147C76.7513 213.241 76.6806 213.353 76.6283 213.484C76.5786 213.612 76.5459 213.754 76.5302 213.908L76.3261 214.026C76.3261 213.769 76.351 213.529 76.4007 213.304C76.453 213.079 76.5328 212.88 76.6401 212.707C76.7473 212.532 76.8834 212.396 77.0482 212.299C77.2157 212.2 77.4145 212.15 77.6447 212.15C77.6971 212.15 77.7572 212.156 77.8253 212.169C77.8933 212.18 77.9404 212.192 77.9666 212.205ZM81.3573 212.895V216.475H80.6313V212.228H81.3377L81.3573 212.895ZM82.6838 212.205L82.6799 212.88C82.6197 212.867 82.5621 212.859 82.5072 212.856C82.4549 212.851 82.3947 212.848 82.3267 212.848C82.1592 212.848 82.0114 212.875 81.8832 212.927C81.755 212.979 81.6464 213.052 81.5575 213.147C81.4685 213.241 81.3979 213.353 81.3456 213.484C81.2958 213.612 81.2631 213.754 81.2474 213.908L81.0434 214.026C81.0434 213.769 81.0682 213.529 81.1179 213.304C81.1703 213.079 81.2501 212.88 81.3573 212.707C81.4646 212.532 81.6006 212.396 81.7655 212.299C81.9329 212.2 82.1318 212.15 82.362 212.15C82.4143 212.15 82.4745 212.156 82.5425 212.169C82.6105 212.18 82.6576 212.192 82.6838 212.205ZM85.0385 216.553C84.7429 216.553 84.4747 216.503 84.234 216.404C83.9959 216.302 83.7905 216.159 83.6178 215.976C83.4478 215.793 83.317 215.576 83.2254 215.325C83.1338 215.074 83.088 214.799 83.088 214.501V214.336C83.088 213.99 83.139 213.683 83.2411 213.413C83.3431 213.141 83.4818 212.911 83.6571 212.723C83.8324 212.534 84.0312 212.392 84.2536 212.295C84.476 212.198 84.7062 212.15 84.9443 212.15C85.2478 212.15 85.5094 212.202 85.7292 212.307C85.9516 212.411 86.1334 212.558 86.2747 212.746C86.416 212.932 86.5207 213.152 86.5887 213.406C86.6567 213.657 86.6907 213.932 86.6907 214.23V214.556H83.5197V213.963H85.9647V213.908C85.9542 213.72 85.915 213.536 85.847 213.359C85.7815 213.181 85.6769 213.034 85.533 212.919C85.3891 212.804 85.1929 212.746 84.9443 212.746C84.7795 212.746 84.6277 212.782 84.4891 212.852C84.3504 212.92 84.2314 213.022 84.1319 213.158C84.0325 213.294 83.9553 213.461 83.9004 213.657C83.8455 213.853 83.818 214.079 83.818 214.336V214.501C83.818 214.702 83.8455 214.892 83.9004 215.07C83.958 215.245 84.0404 215.399 84.1476 215.533C84.2575 215.666 84.3897 215.771 84.544 215.847C84.701 215.923 84.8789 215.96 85.0778 215.96C85.3342 215.96 85.5513 215.908 85.7292 215.804C85.9071 215.699 86.0628 215.559 86.1962 215.384L86.6358 215.733C86.5442 215.872 86.4278 216.004 86.2865 216.129C86.1452 216.255 85.9712 216.357 85.7645 216.435C85.5605 216.514 85.3185 216.553 85.0385 216.553ZM88.7746 215.819L89.9363 212.228H90.678L89.1514 216.475H88.6647L88.7746 215.819ZM87.8053 212.228L89.0023 215.839L89.0847 216.475H88.598L87.0596 212.228H87.8053ZM92.1654 212.228V216.475H91.4354V212.228H92.1654ZM91.3805 211.102C91.3805 210.984 91.4158 210.885 91.4865 210.804C91.5597 210.723 91.667 210.682 91.8083 210.682C91.9469 210.682 92.0529 210.723 92.1262 210.804C92.202 210.885 92.24 210.984 92.24 211.102C92.24 211.214 92.202 211.311 92.1262 211.392C92.0529 211.471 91.9469 211.51 91.8083 211.51C91.667 211.51 91.5597 211.471 91.4865 211.392C91.4158 211.311 91.3805 211.214 91.3805 211.102ZM95.0931 216.553C94.7974 216.553 94.5293 216.503 94.2886 216.404C94.0505 216.302 93.8451 216.159 93.6724 215.976C93.5024 215.793 93.3715 215.576 93.28 215.325C93.1884 215.074 93.1426 214.799 93.1426 214.501V214.336C93.1426 213.99 93.1936 213.683 93.2957 213.413C93.3977 213.141 93.5364 212.911 93.7117 212.723C93.887 212.534 94.0858 212.392 94.3082 212.295C94.5306 212.198 94.7608 212.15 94.9989 212.15C95.3024 212.15 95.564 212.202 95.7838 212.307C96.0062 212.411 96.188 212.558 96.3293 212.746C96.4706 212.932 96.5752 213.152 96.6433 213.406C96.7113 213.657 96.7453 213.932 96.7453 214.23V214.556H93.5743V213.963H96.0193V213.908C96.0088 213.72 95.9696 213.536 95.9015 213.359C95.8361 213.181 95.7315 213.034 95.5876 212.919C95.4437 212.804 95.2474 212.746 94.9989 212.746C94.8341 212.746 94.6823 212.782 94.5437 212.852C94.405 212.92 94.2859 213.022 94.1865 213.158C94.0871 213.294 94.0099 213.461 93.955 213.657C93.9 213.853 93.8726 214.079 93.8726 214.336V214.501C93.8726 214.702 93.9 214.892 93.955 215.07C94.0125 215.245 94.095 215.399 94.2022 215.533C94.3121 215.666 94.4442 215.771 94.5986 215.847C94.7556 215.923 94.9335 215.96 95.1323 215.96C95.3887 215.96 95.6059 215.908 95.7838 215.804C95.9617 215.699 96.1174 215.559 96.2508 215.384L96.6904 215.733C96.5988 215.872 96.4824 216.004 96.3411 216.129C96.1998 216.255 96.0258 216.357 95.8191 216.435C95.615 216.514 95.373 216.553 95.0931 216.553ZM98.6683 215.721L99.7593 212.228H100.238L100.144 212.923L99.0333 216.475H98.5663L98.6683 215.721ZM97.9344 212.228L98.8645 215.76L98.9312 216.475H98.4407L97.2084 212.228H97.9344ZM101.282 215.733L102.169 212.228H102.891L101.659 216.475H101.172L101.282 215.733ZM100.344 212.228L101.412 215.662L101.533 216.475H101.07L99.9281 212.915L99.8339 212.228H100.344ZM106.109 215.348C106.109 215.244 106.086 215.147 106.039 215.058C105.994 214.966 105.901 214.884 105.76 214.811C105.621 214.735 105.412 214.669 105.132 214.614C104.896 214.565 104.683 214.506 104.492 214.438C104.304 214.37 104.143 214.287 104.01 214.191C103.879 214.094 103.778 213.98 103.707 213.849C103.637 213.718 103.601 213.565 103.601 213.39C103.601 213.223 103.638 213.064 103.711 212.915C103.787 212.766 103.893 212.634 104.029 212.519C104.168 212.404 104.334 212.313 104.528 212.248C104.721 212.183 104.937 212.15 105.175 212.15C105.515 212.15 105.806 212.21 106.046 212.33C106.287 212.451 106.472 212.612 106.6 212.813C106.728 213.012 106.792 213.233 106.792 213.476H106.066C106.066 213.359 106.031 213.245 105.96 213.135C105.892 213.022 105.791 212.929 105.658 212.856C105.527 212.783 105.366 212.746 105.175 212.746C104.974 212.746 104.81 212.778 104.685 212.841C104.562 212.901 104.471 212.978 104.414 213.072C104.359 213.166 104.331 213.266 104.331 213.37C104.331 213.449 104.344 213.519 104.371 213.582C104.399 213.642 104.449 213.699 104.52 213.751C104.59 213.801 104.69 213.848 104.818 213.892C104.946 213.937 105.11 213.981 105.309 214.026C105.657 214.104 105.943 214.198 106.168 214.308C106.393 214.418 106.56 214.553 106.67 214.713C106.78 214.872 106.835 215.066 106.835 215.293C106.835 215.479 106.796 215.649 106.717 215.804C106.642 215.958 106.53 216.091 106.384 216.204C106.24 216.314 106.067 216.4 105.866 216.463C105.667 216.523 105.443 216.553 105.195 216.553C104.821 216.553 104.504 216.486 104.245 216.353C103.986 216.22 103.79 216.047 103.656 215.835C103.523 215.623 103.456 215.399 103.456 215.164H104.186C104.197 215.363 104.254 215.521 104.359 215.639C104.463 215.754 104.592 215.836 104.743 215.886C104.895 215.933 105.046 215.957 105.195 215.957C105.394 215.957 105.56 215.93 105.693 215.878C105.829 215.826 105.933 215.754 106.003 215.662C106.074 215.571 106.109 215.466 106.109 215.348ZM112.286 215.749V213.563C112.286 213.395 112.252 213.25 112.184 213.127C112.119 213.001 112.019 212.905 111.886 212.837C111.753 212.769 111.588 212.735 111.392 212.735C111.208 212.735 111.048 212.766 110.909 212.829C110.773 212.892 110.666 212.974 110.587 213.076C110.511 213.178 110.473 213.288 110.473 213.406H109.747C109.747 213.254 109.786 213.103 109.865 212.954C109.943 212.805 110.056 212.67 110.202 212.55C110.352 212.427 110.529 212.33 110.736 212.26C110.945 212.186 111.178 212.15 111.435 212.15C111.743 212.15 112.016 212.202 112.251 212.307C112.489 212.411 112.675 212.57 112.808 212.782C112.944 212.991 113.012 213.254 113.012 213.57V215.548C113.012 215.69 113.024 215.84 113.048 216C113.074 216.159 113.112 216.297 113.162 216.412V216.475H112.404C112.367 216.391 112.339 216.28 112.318 216.141C112.297 216 112.286 215.869 112.286 215.749ZM112.412 213.9L112.42 214.41H111.686C111.479 214.41 111.295 214.427 111.133 214.461C110.97 214.493 110.834 214.541 110.724 214.607C110.614 214.672 110.531 214.754 110.473 214.854C110.416 214.951 110.387 215.064 110.387 215.195C110.387 215.329 110.417 215.45 110.477 215.56C110.537 215.67 110.628 215.758 110.748 215.823C110.871 215.886 111.021 215.917 111.199 215.917C111.422 215.917 111.618 215.87 111.788 215.776C111.958 215.682 112.093 215.567 112.192 215.431C112.294 215.295 112.349 215.163 112.357 215.034L112.667 215.384C112.649 215.493 112.599 215.615 112.518 215.749C112.437 215.882 112.328 216.01 112.192 216.133C112.059 216.254 111.899 216.354 111.713 216.435C111.53 216.514 111.324 216.553 111.093 216.553C110.805 216.553 110.553 216.497 110.336 216.384C110.121 216.272 109.954 216.121 109.834 215.933C109.716 215.742 109.657 215.529 109.657 215.293C109.657 215.066 109.701 214.866 109.79 214.693C109.879 214.518 110.008 214.372 110.175 214.257C110.342 214.14 110.544 214.051 110.779 213.99C111.015 213.93 111.278 213.9 111.568 213.9H112.412ZM114.88 212.895V216.475H114.154V212.228H114.861L114.88 212.895ZM116.207 212.205L116.203 212.88C116.143 212.867 116.085 212.859 116.03 212.856C115.978 212.851 115.918 212.848 115.85 212.848C115.682 212.848 115.535 212.875 115.406 212.927C115.278 212.979 115.17 213.052 115.081 213.147C114.992 213.241 114.921 213.353 114.869 213.484C114.819 213.612 114.786 213.754 114.771 213.908L114.566 214.026C114.566 213.769 114.591 213.529 114.641 213.304C114.693 213.079 114.773 212.88 114.88 212.707C114.988 212.532 115.124 212.396 115.289 212.299C115.456 212.2 115.655 212.15 115.885 212.15C115.937 212.15 115.998 212.156 116.066 212.169C116.134 212.18 116.181 212.192 116.207 212.205ZM118.562 216.553C118.266 216.553 117.998 216.503 117.757 216.404C117.519 216.302 117.314 216.159 117.141 215.976C116.971 215.793 116.84 215.576 116.748 215.325C116.657 215.074 116.611 214.799 116.611 214.501V214.336C116.611 213.99 116.662 213.683 116.764 213.413C116.866 213.141 117.005 212.911 117.18 212.723C117.355 212.534 117.554 212.392 117.777 212.295C117.999 212.198 118.229 212.15 118.467 212.15C118.771 212.15 119.033 212.202 119.252 212.307C119.475 212.411 119.657 212.558 119.798 212.746C119.939 212.932 120.044 213.152 120.112 213.406C120.18 213.657 120.214 213.932 120.214 214.23V214.556H117.043V213.963H119.488V213.908C119.477 213.72 119.438 213.536 119.37 213.359C119.305 213.181 119.2 213.034 119.056 212.919C118.912 212.804 118.716 212.746 118.467 212.746C118.303 212.746 118.151 212.782 118.012 212.852C117.874 212.92 117.754 213.022 117.655 213.158C117.556 213.294 117.478 213.461 117.424 213.657C117.369 213.853 117.341 214.079 117.341 214.336V214.501C117.341 214.702 117.369 214.892 117.424 215.07C117.481 215.245 117.563 215.399 117.671 215.533C117.781 215.666 117.913 215.771 118.067 215.847C118.224 215.923 118.402 215.96 118.601 215.96C118.857 215.96 119.074 215.908 119.252 215.804C119.43 215.699 119.586 215.559 119.719 215.384L120.159 215.733C120.067 215.872 119.951 216.004 119.81 216.129C119.668 216.255 119.494 216.357 119.288 216.435C119.084 216.514 118.842 216.553 118.562 216.553ZM124.346 215.819L125.508 212.228H126.25L124.723 216.475H124.236L124.346 215.819ZM123.377 212.228L124.574 215.839L124.656 216.475H124.17L122.631 212.228H123.377ZM129.389 215.749V213.563C129.389 213.395 129.355 213.25 129.287 213.127C129.222 213.001 129.122 212.905 128.989 212.837C128.856 212.769 128.691 212.735 128.495 212.735C128.311 212.735 128.15 212.766 128.012 212.829C127.876 212.892 127.769 212.974 127.69 213.076C127.614 213.178 127.576 213.288 127.576 213.406H126.85C126.85 213.254 126.889 213.103 126.968 212.954C127.046 212.805 127.159 212.67 127.305 212.55C127.455 212.427 127.632 212.33 127.839 212.26C128.048 212.186 128.281 212.15 128.538 212.15C128.846 212.15 129.119 212.202 129.354 212.307C129.592 212.411 129.778 212.57 129.911 212.782C130.047 212.991 130.115 213.254 130.115 213.57V215.548C130.115 215.69 130.127 215.84 130.151 216C130.177 216.159 130.215 216.297 130.264 216.412V216.475H129.507C129.47 216.391 129.442 216.28 129.421 216.141C129.4 216 129.389 215.869 129.389 215.749ZM129.515 213.9L129.523 214.41H128.789C128.582 214.41 128.398 214.427 128.236 214.461C128.073 214.493 127.937 214.541 127.827 214.607C127.717 214.672 127.634 214.754 127.576 214.854C127.519 214.951 127.49 215.064 127.49 215.195C127.49 215.329 127.52 215.45 127.58 215.56C127.64 215.67 127.731 215.758 127.851 215.823C127.974 215.886 128.124 215.917 128.302 215.917C128.525 215.917 128.721 215.87 128.891 215.776C129.061 215.682 129.196 215.567 129.295 215.431C129.397 215.295 129.452 215.163 129.46 215.034L129.77 215.384C129.752 215.493 129.702 215.615 129.621 215.749C129.54 215.882 129.431 216.01 129.295 216.133C129.162 216.254 129.002 216.354 128.816 216.435C128.633 216.514 128.427 216.553 128.196 216.553C127.908 216.553 127.656 216.497 127.439 216.384C127.224 216.272 127.057 216.121 126.937 215.933C126.819 215.742 126.76 215.529 126.76 215.293C126.76 215.066 126.804 214.866 126.893 214.693C126.982 214.518 127.11 214.372 127.278 214.257C127.445 214.14 127.647 214.051 127.882 213.99C128.118 213.93 128.381 213.9 128.671 213.9H129.515ZM132.046 210.447V216.475H131.316V210.447H132.046ZM135.81 215.493V212.228H136.54V216.475H135.845L135.81 215.493ZM135.947 214.599L136.249 214.591C136.249 214.873 136.219 215.135 136.159 215.376C136.102 215.614 136.007 215.821 135.877 215.996C135.746 216.171 135.574 216.308 135.362 216.408C135.15 216.505 134.893 216.553 134.589 216.553C134.383 216.553 134.193 216.523 134.02 216.463C133.85 216.403 133.704 216.31 133.581 216.184C133.458 216.059 133.362 215.895 133.294 215.694C133.229 215.492 133.196 215.25 133.196 214.968V212.228H133.922V214.975C133.922 215.166 133.943 215.325 133.985 215.45C134.029 215.573 134.088 215.671 134.162 215.745C134.237 215.815 134.321 215.865 134.413 215.894C134.507 215.923 134.604 215.937 134.703 215.937C135.012 215.937 135.256 215.878 135.437 215.76C135.618 215.64 135.747 215.479 135.826 215.278C135.907 215.074 135.947 214.847 135.947 214.599ZM140.15 215.749V213.563C140.15 213.395 140.116 213.25 140.048 213.127C139.983 213.001 139.883 212.905 139.75 212.837C139.617 212.769 139.452 212.735 139.256 212.735C139.072 212.735 138.911 212.766 138.773 212.829C138.637 212.892 138.529 212.974 138.451 213.076C138.375 213.178 138.337 213.288 138.337 213.406H137.611C137.611 213.254 137.65 213.103 137.729 212.954C137.807 212.805 137.92 212.67 138.066 212.55C138.216 212.427 138.393 212.33 138.6 212.26C138.809 212.186 139.042 212.15 139.299 212.15C139.607 212.15 139.88 212.202 140.115 212.307C140.353 212.411 140.539 212.57 140.672 212.782C140.808 212.991 140.876 213.254 140.876 213.57V215.548C140.876 215.69 140.888 215.84 140.912 216C140.938 216.159 140.976 216.297 141.025 216.412V216.475H140.268C140.231 216.391 140.203 216.28 140.182 216.141C140.161 216 140.15 215.869 140.15 215.749ZM140.276 213.9L140.284 214.41H139.55C139.343 214.41 139.159 214.427 138.997 214.461C138.834 214.493 138.698 214.541 138.588 214.607C138.478 214.672 138.395 214.754 138.337 214.854C138.28 214.951 138.251 215.064 138.251 215.195C138.251 215.329 138.281 215.45 138.341 215.56C138.401 215.67 138.492 215.758 138.612 215.823C138.735 215.886 138.885 215.917 139.063 215.917C139.286 215.917 139.482 215.87 139.652 215.776C139.822 215.682 139.957 215.567 140.056 215.431C140.158 215.295 140.213 215.163 140.221 215.034L140.531 215.384C140.513 215.493 140.463 215.615 140.382 215.749C140.301 215.882 140.192 216.01 140.056 216.133C139.923 216.254 139.763 216.354 139.577 216.435C139.394 216.514 139.188 216.553 138.957 216.553C138.669 216.553 138.417 216.497 138.2 216.384C137.985 216.272 137.818 216.121 137.697 215.933C137.58 215.742 137.521 215.529 137.521 215.293C137.521 215.066 137.565 214.866 137.654 214.693C137.743 214.518 137.871 214.372 138.039 214.257C138.206 214.14 138.408 214.051 138.643 213.99C138.879 213.93 139.142 213.9 139.432 213.9H140.276ZM142.014 210.447H142.744V215.65L142.682 216.475H142.014V210.447ZM145.613 214.316V214.399C145.613 214.707 145.577 214.994 145.503 215.258C145.43 215.52 145.323 215.747 145.182 215.941C145.04 216.134 144.868 216.285 144.663 216.392C144.459 216.499 144.225 216.553 143.961 216.553C143.692 216.553 143.455 216.507 143.251 216.416C143.049 216.322 142.879 216.187 142.74 216.012C142.602 215.836 142.491 215.624 142.407 215.376C142.326 215.127 142.27 214.847 142.238 214.536V214.175C142.27 213.861 142.326 213.58 142.407 213.331C142.491 213.083 142.602 212.871 142.74 212.695C142.879 212.517 143.049 212.383 143.251 212.291C143.452 212.197 143.686 212.15 143.953 212.15C144.22 212.15 144.457 212.202 144.663 212.307C144.87 212.409 145.043 212.555 145.182 212.746C145.323 212.937 145.43 213.166 145.503 213.433C145.577 213.697 145.613 213.992 145.613 214.316ZM144.883 214.399V214.316C144.883 214.104 144.864 213.905 144.824 213.72C144.785 213.531 144.722 213.366 144.636 213.225C144.55 213.081 144.436 212.969 144.295 212.888C144.153 212.804 143.979 212.762 143.773 212.762C143.589 212.762 143.43 212.793 143.294 212.856C143.16 212.919 143.047 213.004 142.952 213.111C142.858 213.216 142.781 213.336 142.721 213.472C142.663 213.606 142.62 213.744 142.591 213.888V214.834C142.633 215.017 142.701 215.194 142.795 215.364C142.892 215.531 143.02 215.669 143.18 215.776C143.342 215.883 143.542 215.937 143.78 215.937C143.977 215.937 144.144 215.898 144.283 215.819C144.424 215.738 144.538 215.627 144.624 215.486C144.713 215.344 144.779 215.181 144.82 214.995C144.862 214.809 144.883 214.61 144.883 214.399ZM147.32 210.447V216.475H146.59V210.447H147.32ZM150.248 216.553C149.952 216.553 149.684 216.503 149.444 216.404C149.205 216.302 149 216.159 148.827 215.976C148.657 215.793 148.527 215.576 148.435 215.325C148.343 215.074 148.298 214.799 148.298 214.501V214.336C148.298 213.99 148.349 213.683 148.451 213.413C148.553 213.141 148.691 212.911 148.867 212.723C149.042 212.534 149.241 212.392 149.463 212.295C149.686 212.198 149.916 212.15 150.154 212.15C150.457 212.15 150.719 212.202 150.939 212.307C151.161 212.411 151.343 212.558 151.484 212.746C151.626 212.932 151.73 213.152 151.798 213.406C151.866 213.657 151.9 213.932 151.9 214.23V214.556H148.729V213.963H151.174V213.908C151.164 213.72 151.125 213.536 151.057 213.359C150.991 213.181 150.886 213.034 150.743 212.919C150.599 212.804 150.402 212.746 150.154 212.746C149.989 212.746 149.837 212.782 149.699 212.852C149.56 212.92 149.441 213.022 149.341 213.158C149.242 213.294 149.165 213.461 149.11 213.657C149.055 213.853 149.028 214.079 149.028 214.336V214.501C149.028 214.702 149.055 214.892 149.11 215.07C149.168 215.245 149.25 215.399 149.357 215.533C149.467 215.666 149.599 215.771 149.754 215.847C149.911 215.923 150.088 215.96 150.287 215.96C150.544 215.96 150.761 215.908 150.939 215.804C151.117 215.699 151.272 215.559 151.406 215.384L151.845 215.733C151.754 215.872 151.637 216.004 151.496 216.129C151.355 216.255 151.181 216.357 150.974 216.435C150.77 216.514 150.528 216.553 150.248 216.553ZM152.76 216.09C152.76 215.967 152.798 215.864 152.874 215.78C152.952 215.694 153.065 215.65 153.211 215.65C153.358 215.65 153.469 215.694 153.545 215.78C153.623 215.864 153.662 215.967 153.662 216.09C153.662 216.21 153.623 216.312 153.545 216.396C153.469 216.48 153.358 216.522 153.211 216.522C153.065 216.522 152.952 216.48 152.874 216.396C152.798 216.312 152.76 216.21 152.76 216.09Z" fill="#242429"/>
<mask id="mask0_185_8882" style="mask-type:alpha" maskUnits="userSpaceOnUse" x="17" y="227" width="32" height="32">
<rect x="17.8407" y="227.055" width="31.1449" height="31.1449" fill="#D9D9D9"/>
</mask>
<g mask="url(#mask0_185_8882)">
<path d="M33.2273 248.022L28.5156 250.867C28.3775 250.935 28.2494 250.963 28.1313 250.95C28.0132 250.936 27.8984 250.896 27.7869 250.827C27.6754 250.759 27.5906 250.661 27.5323 250.534C27.4741 250.407 27.4691 250.269 27.5174 250.121L28.7702 244.788L24.625 241.192C24.5085 241.097 24.4316 240.983 24.3941 240.851C24.3567 240.719 24.3646 240.592 24.4179 240.471C24.4711 240.349 24.5427 240.25 24.6325 240.174C24.7223 240.097 24.8438 240.046 24.9968 240.019L30.4672 239.542L32.6009 234.491C32.6591 234.348 32.7436 234.245 32.8542 234.182C32.9648 234.119 33.0892 234.087 33.2273 234.087C33.3654 234.087 33.4897 234.119 33.6004 234.182C33.711 234.245 33.7954 234.348 33.8537 234.491L35.9874 239.542L41.4577 240.019C41.6108 240.046 41.7322 240.097 41.8221 240.174C41.9119 240.25 41.9834 240.349 42.0367 240.471C42.0899 240.592 42.0978 240.719 42.0604 240.851C42.023 240.983 41.946 241.097 41.8296 241.192L37.6844 244.788L38.9372 250.121C38.9854 250.269 38.9804 250.407 38.9222 250.534C38.864 250.661 38.7791 250.759 38.6677 250.827C38.5562 250.896 38.4414 250.936 38.3233 250.95C38.2051 250.963 38.077 250.935 37.9389 250.867L33.2273 248.022Z" fill="#FFC919"/>
</g>
<mask id="mask1_185_8882" style="mask-type:alpha" maskUnits="userSpaceOnUse" x="55" y="227" width="32" height="32">
<rect x="55.0135" y="227.055" width="31.1449" height="31.1449" fill="#D9D9D9"/>
</mask>
<g mask="url(#mask1_185_8882)">
<path d="M70.4001 248.022L65.6885 250.867C65.5504 250.935 65.4223 250.963 65.3041 250.95C65.186 250.936 65.0712 250.896 64.9597 250.827C64.8483 250.759 64.7634 250.661 64.7052 250.534C64.647 250.407 64.642 250.269 64.6902 250.121L65.943 244.788L61.7979 241.192C61.6814 241.097 61.6044 240.983 61.567 240.851C61.5296 240.719 61.5375 240.592 61.5907 240.471C61.644 240.349 61.7155 240.25 61.8053 240.174C61.8952 240.097 62.0166 240.046 62.1697 240.019L67.64 239.542L69.7737 234.491C69.832 234.348 69.9164 234.245 70.027 234.182C70.1377 234.119 70.262 234.087 70.4001 234.087C70.5382 234.087 70.6626 234.119 70.7732 234.182C70.8838 234.245 70.9683 234.348 71.0265 234.491L73.1602 239.542L78.6306 240.019C78.7836 240.046 78.9051 240.097 78.9949 240.174C79.0848 240.25 79.1563 240.349 79.2095 240.471C79.2628 240.592 79.2707 240.719 79.2333 240.851C79.1958 240.983 79.1189 241.097 79.0024 241.192L74.8573 244.788L76.11 250.121C76.1583 250.269 76.1533 250.407 76.0951 250.534C76.0368 250.661 75.952 250.759 75.8405 250.827C75.729 250.896 75.6142 250.936 75.4961 250.95C75.378 250.963 75.2499 250.935 75.1118 250.867L70.4001 248.022Z" fill="#FFC919"/>
</g>
<mask id="mask2_185_8882" style="mask-type:alpha" maskUnits="userSpaceOnUse" x="92" y="227" width="32" height="32">
<rect x="92.1865" y="227.055" width="31.1449" height="31.1449" fill="#D9D9D9"/>
</mask>
<g mask="url(#mask2_185_8882)">
<path d="M107.573 248.022L102.861 250.867C102.723 250.935 102.595 250.963 102.477 250.95C102.359 250.936 102.244 250.896 102.133 250.827C102.021 250.759 101.936 250.661 101.878 250.534C101.82 250.407 101.815 250.269 101.863 250.121L103.116 244.788L98.9708 241.192C98.8544 241.097 98.7774 240.983 98.74 240.851C98.7025 240.719 98.7105 240.592 98.7637 240.471C98.8169 240.349 98.8885 240.25 98.9783 240.174C99.0681 240.097 99.1896 240.046 99.3427 240.019L104.813 239.542L106.947 234.491C107.005 234.348 107.089 234.245 107.2 234.182C107.311 234.119 107.435 234.087 107.573 234.087C107.711 234.087 107.836 234.119 107.946 234.182C108.057 234.245 108.141 234.348 108.2 234.491L110.333 239.542L115.804 240.019C115.957 240.046 116.078 240.097 116.168 240.174C116.258 240.25 116.329 240.349 116.383 240.471C116.436 240.592 116.444 240.719 116.406 240.851C116.369 240.983 116.292 241.097 116.175 241.192L112.03 244.788L113.283 250.121C113.331 250.269 113.326 250.407 113.268 250.534C113.21 250.661 113.125 250.759 113.013 250.827C112.902 250.896 112.787 250.936 112.669 250.95C112.551 250.963 112.423 250.935 112.285 250.867L107.573 248.022Z" fill="#FFC919"/>
</g>
<mask id="mask3_185_8882" style="mask-type:alpha" maskUnits="userSpaceOnUse" x="129" y="227" width="32" height="32">
<rect x="129.359" y="227.055" width="31.1449" height="31.1449" fill="#D9D9D9"/>
</mask>
<g mask="url(#mask3_185_8882)">
<path d="M144.746 248.022L140.034 250.867C139.896 250.935 139.768 250.963 139.65 250.95C139.532 250.936 139.417 250.896 139.306 250.827C139.194 250.759 139.109 250.661 139.051 250.534C138.993 250.407 138.988 250.269 139.036 250.121L140.289 244.788L136.144 241.192C136.027 241.097 135.95 240.983 135.913 240.851C135.875 240.719 135.883 240.592 135.937 240.471C135.99 240.349 136.061 240.25 136.151 240.174C136.241 240.097 136.362 240.046 136.516 240.019L141.986 239.542L144.12 234.491C144.178 234.348 144.262 234.245 144.373 234.182C144.483 234.119 144.608 234.087 144.746 234.087C144.884 234.087 145.008 234.119 145.119 234.182C145.23 234.245 145.314 234.348 145.372 234.491L147.506 239.542L152.976 240.019C153.129 240.046 153.251 240.097 153.341 240.174C153.431 240.25 153.502 240.349 153.555 240.471C153.609 240.592 153.617 240.719 153.579 240.851C153.542 240.983 153.465 241.097 153.348 241.192L149.203 244.788L150.456 250.121C150.504 250.269 150.499 250.407 150.441 250.534C150.383 250.661 150.298 250.759 150.186 250.827C150.075 250.896 149.96 250.936 149.842 250.95C149.724 250.963 149.596 250.935 149.458 250.867L144.746 248.022Z" fill="#FFC919"/>
</g>
<mask id="mask4_185_8882" style="mask-type:alpha" maskUnits="userSpaceOnUse" x="166" y="227" width="32" height="32">
<rect x="166.532" y="227.055" width="31.1449" height="31.1449" fill="#D9D9D9"/>
</mask>
<g mask="url(#mask4_185_8882)">
<path d="M177.831 248.961L181.919 246.495L186.007 248.993L184.936 244.321L188.537 241.207L183.801 240.785L181.919 236.373L180.037 240.753L175.301 241.174L178.902 244.321L177.831 248.961ZM181.919 248.022L177.207 250.867C177.069 250.935 176.941 250.963 176.823 250.95C176.705 250.936 176.59 250.896 176.479 250.827C176.367 250.759 176.282 250.661 176.224 250.534C176.166 250.407 176.161 250.269 176.209 250.121L177.462 244.788L173.317 241.192C173.2 241.097 173.123 240.983 173.086 240.851C173.048 240.719 173.056 240.592 173.11 240.471C173.163 240.349 173.234 240.25 173.324 240.174C173.414 240.097 173.535 240.046 173.688 240.019L179.159 239.542L181.293 234.491C181.351 234.348 181.435 234.245 181.546 234.182C181.656 234.119 181.781 234.087 181.919 234.087C182.057 234.087 182.181 234.119 182.292 234.182C182.403 234.245 182.487 234.348 182.545 234.491L184.679 239.542L190.149 240.019C190.302 240.046 190.424 240.097 190.514 240.174C190.604 240.25 190.675 240.349 190.728 240.471C190.782 240.592 190.789 240.719 190.752 240.851C190.715 240.983 190.638 241.097 190.521 241.192L186.376 244.788L187.629 250.121C187.677 250.269 187.672 250.407 187.614 250.534C187.556 250.661 187.471 250.759 187.359 250.827C187.248 250.896 187.133 250.936 187.015 250.95C186.897 250.963 186.769 250.935 186.631 250.867L181.919 248.022Z" fill="#A4A4A4"/>
</g>
<path d="M100.867 270.317V272.499C100.786 272.607 100.659 272.725 100.486 272.853C100.316 272.978 100.09 273.087 99.8071 273.178C99.5246 273.27 99.1727 273.316 98.7514 273.316C98.393 273.316 98.0647 273.256 97.7664 273.135C97.4681 273.012 97.2104 272.833 96.9933 272.598C96.7787 272.362 96.6126 272.076 96.4949 271.738C96.3771 271.398 96.3183 271.011 96.3183 270.576V270.18C96.3183 269.748 96.3719 269.364 96.4792 269.026C96.589 268.686 96.746 268.398 96.9501 268.163C97.1542 267.927 97.4001 267.75 97.6879 267.629C97.9783 267.506 98.3067 267.445 98.673 267.445C99.1413 267.445 99.5285 267.523 99.8346 267.68C100.143 267.835 100.381 268.049 100.549 268.324C100.716 268.599 100.822 268.913 100.867 269.266H99.9013C99.8699 269.067 99.8084 268.889 99.7169 268.732C99.6279 268.575 99.4997 268.452 99.3323 268.363C99.1674 268.271 98.9529 268.226 98.6887 268.226C98.461 268.226 98.2609 268.269 98.0882 268.355C97.9155 268.442 97.7716 268.568 97.6565 268.736C97.544 268.903 97.459 269.107 97.4014 269.348C97.3439 269.589 97.3151 269.864 97.3151 270.172V270.576C97.3151 270.89 97.3478 271.169 97.4132 271.412C97.4812 271.656 97.578 271.861 97.7036 272.029C97.8318 272.196 97.9875 272.323 98.1706 272.409C98.3538 272.493 98.5605 272.535 98.7907 272.535C99.0157 272.535 99.2001 272.517 99.344 272.48C99.4879 272.441 99.6018 272.395 99.6855 272.343C99.7718 272.288 99.8385 272.235 99.8856 272.186V271.051H98.6965V270.317H100.867ZM107.318 270.223V270.537C107.318 270.969 107.262 271.356 107.149 271.699C107.037 272.042 106.876 272.333 106.666 272.574C106.46 272.815 106.211 272.999 105.921 273.127C105.63 273.253 105.309 273.316 104.955 273.316C104.605 273.316 104.284 273.253 103.994 273.127C103.706 272.999 103.456 272.815 103.244 272.574C103.032 272.333 102.867 272.042 102.75 271.699C102.635 271.356 102.577 270.969 102.577 270.537V270.223C102.577 269.792 102.635 269.406 102.75 269.066C102.865 268.723 103.027 268.431 103.236 268.19C103.448 267.947 103.698 267.763 103.986 267.637C104.276 267.509 104.597 267.445 104.947 267.445C105.301 267.445 105.622 267.509 105.913 267.637C106.203 267.763 106.453 267.947 106.662 268.19C106.872 268.431 107.033 268.723 107.145 269.066C107.26 269.406 107.318 269.792 107.318 270.223ZM106.333 270.537V270.215C106.333 269.896 106.301 269.615 106.239 269.372C106.178 269.126 106.088 268.92 105.968 268.756C105.85 268.588 105.705 268.462 105.532 268.379C105.36 268.292 105.165 268.249 104.947 268.249C104.73 268.249 104.537 268.292 104.367 268.379C104.197 268.462 104.051 268.588 103.931 268.756C103.813 268.92 103.723 269.126 103.66 269.372C103.597 269.615 103.566 269.896 103.566 270.215V270.537C103.566 270.856 103.597 271.139 103.66 271.385C103.723 271.631 103.815 271.839 103.935 272.009C104.058 272.176 104.204 272.303 104.374 272.39C104.545 272.473 104.738 272.515 104.955 272.515C105.175 272.515 105.37 272.473 105.54 272.39C105.71 272.303 105.854 272.176 105.972 272.009C106.089 271.839 106.178 271.631 106.239 271.385C106.301 271.139 106.333 270.856 106.333 270.537ZM113.663 270.223V270.537C113.663 270.969 113.607 271.356 113.494 271.699C113.382 272.042 113.221 272.333 113.012 272.574C112.805 272.815 112.556 272.999 112.266 273.127C111.975 273.253 111.654 273.316 111.3 273.316C110.95 273.316 110.629 273.253 110.339 273.127C110.051 272.999 109.801 272.815 109.589 272.574C109.377 272.333 109.213 272.042 109.095 271.699C108.98 271.356 108.922 270.969 108.922 270.537V270.223C108.922 269.792 108.98 269.406 109.095 269.066C109.21 268.723 109.372 268.431 109.582 268.19C109.793 267.947 110.043 267.763 110.331 267.637C110.621 267.509 110.942 267.445 111.293 267.445C111.646 267.445 111.968 267.509 112.258 267.637C112.548 267.763 112.798 267.947 113.008 268.19C113.217 268.431 113.378 268.723 113.49 269.066C113.605 269.406 113.663 269.792 113.663 270.223ZM112.678 270.537V270.215C112.678 269.896 112.647 269.615 112.584 269.372C112.524 269.126 112.433 268.92 112.313 268.756C112.195 268.588 112.05 268.462 111.877 268.379C111.705 268.292 111.51 268.249 111.293 268.249C111.075 268.249 110.882 268.292 110.712 268.379C110.542 268.462 110.396 268.588 110.276 268.756C110.158 268.92 110.068 269.126 110.005 269.372C109.943 269.615 109.911 269.896 109.911 270.215V270.537C109.911 270.856 109.943 271.139 110.005 271.385C110.068 271.631 110.16 271.839 110.28 272.009C110.403 272.176 110.55 272.303 110.72 272.39C110.89 272.473 111.083 272.515 111.3 272.515C111.52 272.515 111.715 272.473 111.885 272.39C112.055 272.303 112.199 272.176 112.317 272.009C112.435 271.839 112.524 271.631 112.584 271.385C112.647 271.139 112.678 270.856 112.678 270.537ZM117.112 273.237H115.891L115.899 272.456H117.112C117.465 272.456 117.761 272.379 117.999 272.225C118.239 272.07 118.42 271.849 118.54 271.562C118.663 271.274 118.725 270.931 118.725 270.533V270.223C118.725 269.915 118.689 269.641 118.619 269.403C118.551 269.165 118.449 268.965 118.313 268.803C118.179 268.64 118.014 268.517 117.818 268.434C117.625 268.35 117.401 268.308 117.147 268.308H115.868V267.523H117.147C117.527 267.523 117.873 267.587 118.187 267.716C118.501 267.841 118.772 268.023 119 268.261C119.23 268.499 119.406 268.784 119.529 269.117C119.652 269.449 119.714 269.82 119.714 270.231V270.533C119.714 270.944 119.652 271.316 119.529 271.648C119.406 271.98 119.23 272.265 119 272.503C118.769 272.739 118.495 272.921 118.175 273.049C117.859 273.175 117.504 273.237 117.112 273.237ZM116.437 267.523V273.237H115.452V267.523H116.437Z" fill="#242429"/>
</g>
<rect x="1.25891" y="1" width="213" height="463.164" rx="6.03271" stroke="#242429" stroke-width="2"/>
<defs>
<clipPath id="clip0_185_8882">
<rect x="0.258911" width="215" height="465.164" rx="7.03271" fill="white"/>
</clipPath>
</defs>
</svg>
