<svg width="178" height="42" viewBox="0 0 178 42" fill="none" xmlns="http://www.w3.org/2000/svg">
<rect x="1" y="1.03125" width="37.4713" height="39.9383" rx="5" fill="#41C1F0" stroke="#F0F0F0" stroke-width="2"/>
<mask id="mask0_175_4704" style="mask-type:alpha" maskUnits="userSpaceOnUse" x="12" y="6" width="16" height="16">
<rect x="12.3364" y="6.19922" width="14.8021" height="14.8021" fill="#D9D9D9"/>
</mask>
<g mask="url(#mask0_175_4704)">
<path d="M15.5267 19.4461C15.0773 19.4461 14.6925 19.2861 14.3724 18.966C14.0524 18.646 13.8923 18.2612 13.8923 17.8117V9.38636C13.8923 8.93689 14.0524 8.55213 14.3724 8.23206C14.6925 7.91199 15.0773 7.75195 15.5267 7.75195H23.9521C24.046 7.75195 24.1507 7.76257 24.2662 7.78379C24.3817 7.80502 24.4871 7.83687 24.5823 7.87933L23.0752 9.38636H15.5267V17.8117H23.9521V13.9195L25.5865 12.2851V17.8117C25.5865 18.2612 25.4265 18.646 25.1064 18.966C24.7863 19.2861 24.4016 19.4461 23.9521 19.4461H15.5267ZM19.5162 16.6131L16.0315 13.1284L16.9821 12.1778L19.5162 14.7032L25.2882 8.93115L26.2542 9.87505L19.5162 16.6131Z" fill="white"/>
</g>
<mask id="mask1_175_4704" style="mask-type:alpha" maskUnits="userSpaceOnUse" x="12" y="21" width="16" height="15">
<rect x="12.3364" y="21.002" width="14.8021" height="14.8021" fill="#D9D9D9"/>
</mask>
<g mask="url(#mask1_175_4704)">
<path d="M15.5267 34.2479C15.0713 34.2479 14.6851 34.0893 14.368 33.7723C14.0509 33.4552 13.8923 33.0689 13.8923 32.6135V24.1881C13.8923 23.7327 14.0509 23.3464 14.368 23.0294C14.6851 22.7123 15.0713 22.5537 15.5267 22.5537H23.9521C24.4075 22.5537 24.7938 22.7123 25.1109 23.0294C25.428 23.3464 25.5865 23.7327 25.5865 24.1881V32.6135C25.5865 33.0689 25.428 33.4552 25.1109 33.7723C24.7938 34.0893 24.4075 34.2479 23.9521 34.2479H15.5267ZM15.5267 32.6135H23.9521V24.1881H15.5267V32.6135Z" fill="white"/>
</g>
<path d="M58.7294 33.3323C57.068 33.3323 55.5173 33.0222 54.0774 32.4019C52.6375 31.7816 51.3748 30.9288 50.2893 29.8433C49.2039 28.7357 48.351 27.4619 47.7307 26.022C47.1326 24.56 46.8336 22.9982 46.8336 21.3368C46.8336 19.6754 47.1326 18.1247 47.7307 16.6848C48.351 15.2449 49.1928 13.9822 50.2561 12.8967C51.3416 11.7891 52.5932 10.9363 54.0109 10.3381C55.4508 9.71787 57.0015 9.40774 58.6629 9.40774C60.3243 9.40774 61.8639 9.71787 63.2817 10.3381C64.7216 10.9363 65.9843 11.7891 67.0697 12.8967C68.1552 13.9822 68.997 15.256 69.5951 16.718C70.2154 18.1579 70.5255 19.7086 70.5255 21.37C70.5255 23.0314 70.2154 24.5932 69.5951 26.0552C68.997 27.4951 68.1552 28.7578 67.0697 29.8433C66.0064 30.9288 64.7548 31.7816 63.3149 32.4019C61.8972 33.0222 60.3687 33.3323 58.7294 33.3323ZM69.3625 34.595L58.8955 24.128L61.3544 21.6691L71.8214 32.1361L69.3625 34.595ZM58.6629 29.6771C60.2357 29.6771 61.6092 29.3227 62.7833 28.6138C63.9795 27.905 64.9099 26.9303 65.5745 25.6897C66.2612 24.427 66.6045 22.9761 66.6045 21.3368C66.6045 20.1184 66.4052 19.0108 66.0064 18.0139C65.6298 16.9949 65.0871 16.1199 64.3782 15.3889C63.6694 14.6357 62.8276 14.0597 61.8529 13.661C60.9003 13.2622 59.837 13.0629 58.6629 13.0629C57.1123 13.0629 55.7388 13.4173 54.5426 14.1262C53.3685 14.8129 52.4381 15.7765 51.7514 17.0171C51.0868 18.2576 50.7545 19.6975 50.7545 21.3368C50.7545 22.5552 50.9428 23.6849 51.3194 24.7261C51.7182 25.7451 52.2609 26.6201 52.9476 27.3511C53.6565 28.0822 54.4983 28.6581 55.473 29.079C56.4477 29.4778 57.511 29.6771 58.6629 29.6771ZM81.3019 33.3323C79.9506 33.3323 78.7433 33.0332 77.68 32.4351C76.6389 31.837 75.8192 31.0174 75.2211 29.9762C74.6452 28.9129 74.3572 27.6945 74.3572 26.3211V17.0503H78.0123V26.1549C78.0123 26.9303 78.1341 27.5948 78.3778 28.1486C78.6437 28.6803 79.0202 29.0901 79.5076 29.3781C80.0171 29.6661 80.6152 29.8101 81.3019 29.8101C82.3652 29.8101 83.1738 29.4999 83.7276 28.8797C84.3036 28.2372 84.5916 27.329 84.5916 26.1549V17.0503H88.2467V26.3211C88.2467 27.7167 87.9476 28.9461 87.3495 30.0094C86.7736 31.0506 85.965 31.8702 84.9238 32.4683C83.8827 33.0443 82.6754 33.3323 81.3019 33.3323ZM98.6008 33.3323C97.1609 33.3323 95.8539 32.9668 94.6798 32.2357C93.5279 31.5047 92.6085 30.5189 91.9218 29.2784C91.2573 28.0157 90.925 26.609 90.925 25.0584C90.925 23.4856 91.2573 22.0789 91.9218 20.8384C92.6085 19.5757 93.5279 18.5788 94.6798 17.8478C95.8539 17.0946 97.1609 16.718 98.6008 16.718C99.8191 16.718 100.894 16.9838 101.824 17.5155C102.776 18.025 103.53 18.7339 104.083 19.6421C104.637 20.5504 104.914 21.5805 104.914 22.7324V27.3179C104.914 28.4698 104.637 29.4999 104.083 30.4082C103.552 31.3164 102.81 32.0364 101.857 32.568C100.905 33.0775 99.8191 33.3323 98.6008 33.3323ZM99.1989 29.8765C100.55 29.8765 101.636 29.4224 102.455 28.5141C103.297 27.6059 103.718 26.4429 103.718 25.0252C103.718 24.0726 103.53 23.2308 103.153 22.4998C102.776 21.7688 102.245 21.2039 101.558 20.8051C100.894 20.3842 100.107 20.1738 99.1989 20.1738C98.3128 20.1738 97.5264 20.3842 96.8396 20.8051C96.1751 21.2039 95.6434 21.7688 95.2447 22.4998C94.8681 23.2308 94.6798 24.0726 94.6798 25.0252C94.6798 25.9777 94.8681 26.8195 95.2447 27.5505C95.6434 28.2815 96.1751 28.8575 96.8396 29.2784C97.5264 29.6771 98.3128 29.8765 99.1989 29.8765ZM103.485 33V28.7135L104.117 24.8258L103.485 20.9713V17.0503H107.14V33H103.485ZM111.197 33V9.07545H114.852V33H111.197Z" fill="#41C1F0"/>
<path d="M119.418 33V9.74002H123.24V33H119.418ZM134.205 33V9.74002H138.026V33H134.205ZM122.043 22.6992V19.2102H135.036V22.6992H122.043ZM149.122 33.3323C147.771 33.3323 146.563 33.0332 145.5 32.4351C144.459 31.837 143.639 31.0174 143.041 29.9762C142.465 28.9129 142.177 27.6945 142.177 26.3211V17.0503H145.832V26.1549C145.832 26.9303 145.954 27.5948 146.198 28.1486C146.464 28.6803 146.84 29.0901 147.328 29.3781C147.837 29.6661 148.435 29.8101 149.122 29.8101C150.185 29.8101 150.994 29.4999 151.548 28.8797C152.124 28.2372 152.412 27.329 152.412 26.1549V17.0503H156.067V26.3211C156.067 27.7167 155.768 28.9461 155.169 30.0094C154.594 31.0506 153.785 31.8702 152.744 32.4683C151.703 33.0443 150.495 33.3323 149.122 33.3323ZM168.282 33.3323C167.063 33.3323 165.978 33.0775 165.025 32.568C164.073 32.0364 163.319 31.3164 162.766 30.4082C162.234 29.4999 161.968 28.4698 161.968 27.3179V22.7324C161.968 21.5805 162.245 20.5504 162.799 19.6421C163.353 18.7339 164.106 18.025 165.058 17.5155C166.011 16.9838 167.085 16.718 168.282 16.718C169.721 16.718 171.017 17.0946 172.169 17.8478C173.343 18.5788 174.263 19.5757 174.927 20.8384C175.614 22.0789 175.957 23.4856 175.957 25.0584C175.957 26.609 175.614 28.0157 174.927 29.2784C174.263 30.5189 173.343 31.5047 172.169 32.2357C171.017 32.9668 169.721 33.3323 168.282 33.3323ZM159.742 33V9.07545H163.397V20.9713L162.766 24.8258L163.397 28.7135V33H159.742ZM167.683 29.8765C168.569 29.8765 169.345 29.6771 170.009 29.2784C170.696 28.8575 171.228 28.2815 171.604 27.5505C172.003 26.8195 172.202 25.9777 172.202 25.0252C172.202 24.0726 172.003 23.2308 171.604 22.4998C171.228 21.7688 170.696 21.2039 170.009 20.8051C169.345 20.3842 168.569 20.1738 167.683 20.1738C166.797 20.1738 166.011 20.3842 165.324 20.8051C164.637 21.2039 164.106 21.7688 163.729 22.4998C163.353 23.2308 163.164 24.0726 163.164 25.0252C163.164 25.9777 163.353 26.8195 163.729 27.5505C164.106 28.2815 164.637 28.8575 165.324 29.2784C166.011 29.6771 166.797 29.8765 167.683 29.8765Z" fill="#97999C"/>
</svg>
