<svg width="499" height="162" viewBox="0 0 499 162" fill="none" xmlns="http://www.w3.org/2000/svg">
<g clip-path="url(#clip0_147_3019)">
<rect width="499" height="161" transform="translate(0 0.5)" fill="white"/>
<rect x="313.649" y="1.43976" width="183" height="164" rx="7.5" transform="rotate(5.07839 313.649 1.43976)" fill="white"/>
<rect x="313.649" y="1.43976" width="183" height="164" rx="7.5" transform="rotate(5.07839 313.649 1.43976)" stroke="#EDEDED"/>
<rect x="326.079" y="59.2666" width="65" height="10" rx="5" transform="rotate(5.07839 326.079 59.2666)" fill="#ECECEC"/>
<rect x="324.309" y="79.1895" width="149" height="10" rx="5" transform="rotate(5.07839 324.309 79.1895)" fill="#ECECEC"/>
<rect x="322.539" y="99.1104" width="149" height="10" rx="5" transform="rotate(5.07839 322.539 99.1104)" fill="#ECECEC"/>
<rect x="320.768" y="119.031" width="149" height="10" rx="5" transform="rotate(5.07839 320.768 119.031)" fill="#ECECEC"/>
<rect x="318.998" y="138.953" width="149" height="10" rx="5" transform="rotate(5.07839 318.998 138.953)" fill="#ECECEC"/>
<mask id="mask0_147_3019" style="mask-type:alpha" maskUnits="userSpaceOnUse" x="326" y="18" width="36" height="36">
<rect x="329.708" y="18.4277" width="32" height="32" transform="rotate(5.07839 329.708 18.4277)" fill="#D9D9D9"/>
</mask>
<g mask="url(#mask0_147_3019)">
<path d="M335.081 48.3545C333.974 48.2562 333.068 47.7852 332.362 46.9416C331.656 46.0981 331.352 45.1229 331.45 44.0162L331.686 41.36C331.72 40.9837 331.875 40.6796 332.152 40.4476C332.43 40.2157 332.756 40.1165 333.133 40.1499L335.789 40.3859L337.205 24.4487C337.27 23.7183 337.586 23.1161 338.152 22.6421C338.718 22.1682 339.367 21.9637 340.097 22.0286L354.706 23.3269C355.437 23.3918 356.039 23.7074 356.513 24.2738C356.987 24.8402 357.191 25.4887 357.127 26.2191L356.418 34.1877C356.385 34.564 356.23 34.8681 355.952 35.1001C355.675 35.332 355.349 35.4312 354.972 35.3978C354.596 35.3644 354.292 35.209 354.06 34.9319C353.828 34.6547 353.729 34.328 353.762 33.9517L354.47 25.9831L339.861 24.6848L338.445 40.622L343.724 41.0911C344.233 41.1364 344.562 41.3942 344.71 41.8647C344.857 42.3352 344.738 42.7318 344.353 43.0545C344.088 43.2763 343.874 43.5418 343.713 43.851C343.552 44.1602 343.455 44.4918 343.424 44.846L343.167 47.7346C343.134 48.1109 342.978 48.415 342.701 48.6469C342.424 48.8789 342.097 48.9781 341.721 48.9447L335.081 48.3545ZM345.823 47.9706L346.018 45.7793C346.034 45.6022 346.083 45.4281 346.165 45.2569C346.247 45.0857 346.36 44.9507 346.502 44.8518L354.055 38.5624C354.272 38.3809 354.506 38.2567 354.758 38.1898C355.009 38.1228 355.256 38.1002 355.5 38.1219C355.765 38.1455 356.016 38.2179 356.25 38.3391C356.485 38.4604 356.693 38.6295 356.874 38.8464L357.994 40.184C358.153 40.399 358.272 40.6326 358.35 40.885C358.428 41.1373 358.456 41.3852 358.434 41.6287C358.413 41.8722 358.346 42.1173 358.235 42.364C358.124 42.6106 357.96 42.8247 357.743 43.0063L350.223 49.2986C350.103 49.3995 349.95 49.4808 349.766 49.5425C349.582 49.6042 349.402 49.6272 349.225 49.6115L347.033 49.4168C346.657 49.3833 346.353 49.228 346.121 48.9508C345.889 48.6737 345.79 48.3469 345.823 47.9706ZM355.099 42.6374L356.442 41.4517L355.323 40.114L353.949 41.2636L355.099 42.6374ZM341.809 32.8894L351.106 33.7156C351.482 33.7491 351.786 33.9044 352.018 34.1815C352.25 34.4587 352.349 34.7854 352.316 35.1617C352.283 35.538 352.127 35.8421 351.85 36.0741C351.573 36.306 351.246 36.4053 350.87 36.3718L341.573 35.5456C341.197 35.5122 340.893 35.3569 340.661 35.0797C340.429 34.8025 340.33 34.4758 340.363 34.0995C340.397 33.7232 340.552 33.4191 340.829 33.1872C341.106 32.9552 341.433 32.856 341.809 32.8894ZM342.163 28.9051L351.46 29.7313C351.836 29.7648 352.14 29.9201 352.372 30.1972C352.604 30.4744 352.704 30.8011 352.67 31.1774C352.637 31.5537 352.481 31.8579 352.204 32.0898C351.927 32.3217 351.6 32.421 351.224 32.3875L341.927 31.5613C341.551 31.5279 341.247 31.3726 341.015 31.0954C340.783 30.8182 340.684 30.4915 340.717 30.1152C340.751 29.7389 340.906 29.4348 341.183 29.2029C341.46 28.971 341.787 28.8717 342.163 28.9051Z" fill="#272727"/>
</g>
<g clip-path="url(#clip1_147_3019)">
<rect y="39.8496" width="184" height="165" rx="8" transform="rotate(-10.7593 0 39.8496)" fill="white"/>
<rect x="28.3245" y="92.4873" width="65" height="10" rx="5" transform="rotate(-10.7593 28.3245 92.4873)" fill="#ECECEC"/>
<rect x="32.0583" y="112.136" width="149" height="10" rx="5" transform="rotate(-10.7593 32.0583 112.136)" fill="#ECECEC"/>
<rect x="35.792" y="131.784" width="149" height="10" rx="5" transform="rotate(-10.7593 35.792 131.784)" fill="#ECECEC"/>
<rect x="39.5256" y="151.433" width="149" height="10" rx="5" transform="rotate(-10.7593 39.5256 151.433)" fill="#ECECEC"/>
<rect x="43.2593" y="171.081" width="149" height="10" rx="5" transform="rotate(-10.7593 43.2593 171.081)" fill="#ECECEC"/>
<mask id="mask1_147_3019" style="mask-type:alpha" maskUnits="userSpaceOnUse" x="20" y="46" width="39" height="38">
<rect x="20.6704" y="52.208" width="32" height="32" transform="rotate(-10.7593 20.6704 52.208)" fill="#D9D9D9"/>
</mask>
<g mask="url(#mask1_147_3019)">
<path d="M42.0257 64.0635C43.3953 62.5817 44.3939 61.0518 45.0214 59.4735C45.649 57.8953 45.83 56.4076 45.5645 55.0104C45.4317 54.3118 45.2196 53.8205 44.9281 53.5366C44.6367 53.2527 44.2945 53.1481 43.9015 53.2227C42.8754 53.4177 42.1343 54.4577 41.6782 56.3426C41.2221 58.2276 41.2014 60.2616 41.6163 62.4448C41.6744 62.7504 41.7348 63.0387 41.7976 63.3095C41.8603 63.5803 41.9364 63.8316 42.0257 64.0635ZM30.0982 72.5392C29.9037 72.8249 29.6209 73.0031 29.2498 73.0736C28.8786 73.1441 28.5502 73.0821 28.2644 72.8876C27.9786 72.6931 27.8005 72.4103 27.7299 72.0392C27.6594 71.668 27.7214 71.3396 27.9159 71.0538L28.8708 69.6509L27.4679 68.696C27.1821 68.5015 27.0039 68.2186 26.9334 67.8475C26.8629 67.4764 26.9249 67.1479 27.1194 66.8621C27.3139 66.5763 27.5967 66.3982 27.9679 66.3277C28.339 66.2571 28.6675 66.3191 28.9532 66.5136L30.3562 67.4685L31.3111 66.0656C31.5056 65.7798 31.7884 65.6017 32.1595 65.5311C32.5307 65.4606 32.8591 65.5226 33.1449 65.7171C33.4307 65.9116 33.6088 66.1945 33.6794 66.5656C33.7499 66.9367 33.6879 67.2652 33.4934 67.551L32.5385 68.9539L33.9414 69.9088C34.2272 70.1033 34.4054 70.3861 34.4759 70.7573C34.5464 71.1284 34.4844 71.4569 34.2899 71.7426C34.0954 72.0284 33.8126 72.2066 33.4414 72.2771C33.0703 72.3476 32.7418 72.2856 32.456 72.0911L31.0531 71.1362L30.0982 72.5392ZM44.8909 69.321C44.2359 69.4455 43.6117 69.434 43.0182 69.2867C42.4247 69.1393 41.8775 68.8192 41.3767 68.3263C41.0606 68.5673 40.7336 68.8104 40.3956 69.0556L39.3818 69.7911C39.0615 70.0103 38.7187 70.0811 38.3533 70.0035C37.988 69.9259 37.7066 69.7249 37.5092 69.4005C37.3119 69.076 37.264 68.7345 37.3655 68.376C37.467 68.0174 37.6779 67.7285 37.9981 67.5093C38.3361 67.2641 38.6641 67.0265 38.9823 66.7963C39.3005 66.5662 39.6068 66.3327 39.901 66.0959C39.7006 65.6363 39.5192 65.1279 39.3567 64.5707C39.1943 64.0134 39.0509 63.4073 38.9264 62.7524C38.329 59.6086 38.4565 56.887 39.3089 54.5874C40.1612 52.2879 41.5262 50.9597 43.4037 50.6029C44.5389 50.3872 45.5466 50.6312 46.4268 51.3348C47.3069 52.0384 47.8901 53.1434 48.1764 54.6498C48.5332 56.5273 48.2909 58.496 47.4495 60.5559C46.6082 62.6159 45.2677 64.5784 43.428 66.4435C43.6098 66.5673 43.7899 66.6519 43.9681 66.6972C44.1464 66.7425 44.3228 66.7485 44.4975 66.7153C44.956 66.6282 45.4431 66.2755 45.959 65.6572C46.4749 65.0389 46.9357 64.2501 47.3415 63.2909C47.5018 62.9437 47.7397 62.678 48.0552 62.4936C48.3708 62.3092 48.7069 62.2623 49.0634 62.3529C49.424 62.4654 49.7129 62.6762 49.9301 62.9856C50.1472 63.2949 50.2583 63.6414 50.2633 64.025C50.2694 64.2953 50.2953 64.5505 50.3409 64.7906C50.3865 65.0308 50.4629 65.2538 50.5698 65.4596C50.6707 65.3952 50.7827 65.3004 50.906 65.1752C51.0292 65.05 51.1527 64.8965 51.2765 64.7146C51.4929 64.4247 51.778 64.2291 52.132 64.1279C52.486 64.0267 52.8257 64.0583 53.151 64.2227C53.5022 64.4048 53.722 64.6684 53.8102 65.0135C53.8984 65.3587 53.8452 65.6742 53.6507 65.96C53.244 66.5575 52.7903 67.0565 52.2896 67.457C51.7889 67.8575 51.2875 68.1055 50.7854 68.2009C50.3269 68.2881 49.8916 68.2294 49.4796 68.0249C49.0675 67.8205 48.6874 67.4573 48.3394 66.9353C47.8319 67.5972 47.2885 68.1303 46.7093 68.5344C46.1301 68.9385 45.524 69.2007 44.8909 69.321ZM31.1371 78.7205C30.766 78.7911 30.431 78.7247 30.1323 78.5213C29.8335 78.3179 29.6489 78.0307 29.5783 77.6596C29.5078 77.2884 29.5742 76.9535 29.7776 76.6547C29.9809 76.3559 30.2682 76.1713 30.6393 76.1008C31.0105 76.0302 31.3454 76.0966 31.6442 76.3C31.9429 76.5034 32.1276 76.7906 32.1981 77.1617C32.2686 77.5329 32.2022 77.8678 31.9989 78.1666C31.7955 78.4654 31.5083 78.65 31.1371 78.7205ZM36.3767 77.7249C36.0056 77.7954 35.6706 77.729 35.3719 77.5257C35.0731 77.3223 34.8884 77.0351 34.8179 76.6639C34.7474 76.2928 34.8138 75.9578 35.0172 75.6591C35.2205 75.3603 35.5078 75.1756 35.8789 75.1051C36.25 75.0346 36.585 75.101 36.8837 75.3044C37.1825 75.5077 37.3672 75.795 37.4377 76.1661C37.5082 76.5372 37.4418 76.8722 37.2384 77.171C37.0351 77.4697 36.7478 77.6544 36.3767 77.7249ZM41.6163 76.7292C41.2451 76.7998 40.9102 76.7334 40.6114 76.53C40.3127 76.3266 40.128 76.0394 40.0575 75.6683C39.987 75.2971 40.0534 74.9622 40.2567 74.6634C40.4601 74.3646 40.7473 74.18 41.1185 74.1095C41.4896 74.0389 41.8246 74.1054 42.1233 74.3087C42.4221 74.5121 42.6067 74.7993 42.6773 75.1704C42.7478 75.5416 42.6814 75.8765 42.478 76.1753C42.2747 76.4741 41.9874 76.6587 41.6163 76.7292ZM46.8559 75.7336C46.4847 75.8041 46.1498 75.7377 45.851 75.5344C45.5522 75.331 45.3676 75.0438 45.2971 74.6726C45.2265 74.3015 45.2929 73.9665 45.4963 73.6678C45.6997 73.369 45.9869 73.1843 46.358 73.1138C46.7292 73.0433 47.0641 73.1097 47.3629 73.3131C47.6617 73.5164 47.8463 73.8037 47.9168 74.1748C47.9874 74.5459 47.921 74.8809 47.7176 75.1797C47.5142 75.4784 47.227 75.6631 46.8559 75.7336ZM52.0954 74.738C51.7243 74.8085 51.3893 74.7421 51.0906 74.5387C50.7918 74.3354 50.6072 74.0481 50.5366 73.677C50.4661 73.3058 50.5325 72.9709 50.7359 72.6721C50.9392 72.3733 51.2265 72.1887 51.5976 72.1182C51.9687 72.0476 52.3037 72.1141 52.6025 72.3174C52.9012 72.5208 53.0859 72.808 53.1564 73.1791C53.2269 73.5503 53.1605 73.8852 52.9572 74.184C52.7538 74.4828 52.4666 74.6674 52.0954 74.738Z" fill="#272727"/>
</g>
</g>
<rect x="0.584552" y="40.2475" width="183" height="164" rx="7.5" transform="rotate(-10.7593 0.584552 40.2475)" stroke="#EDEDED"/>
<rect x="116.5" y="28" width="183" height="164" rx="7.5" fill="white"/>
<rect x="116.5" y="28" width="183" height="164" rx="7.5" stroke="#EDEDED"/>
<rect x="138" y="104.5" width="121" height="10" rx="5" fill="#ECECEC"/>
<rect x="138" y="124.5" width="121" height="10" rx="5" fill="#ECECEC"/>
<rect x="138" y="144.5" width="121" height="10" rx="5" fill="#ECECEC"/>
<mask id="mask2_147_3019" style="mask-type:alpha" maskUnits="userSpaceOnUse" x="138" y="47" width="32" height="33">
<rect x="138" y="47.5" width="32" height="32" fill="#D9D9D9"/>
</mask>
<g mask="url(#mask2_147_3019)">
<path d="M152.133 65.8993L149.267 63.0327C149.022 62.7882 148.711 62.666 148.333 62.666C147.955 62.666 147.644 62.7882 147.4 63.0327C147.155 63.2771 147.033 63.5882 147.033 63.966C147.033 64.3438 147.155 64.6549 147.4 64.8993L151.2 68.6993C151.467 68.966 151.778 69.0993 152.133 69.0993C152.489 69.0993 152.8 68.966 153.067 68.6993L160.6 61.166C160.844 60.9216 160.967 60.6105 160.967 60.2327C160.967 59.8549 160.844 59.5438 160.6 59.2993C160.355 59.0549 160.044 58.9327 159.667 58.9327C159.289 58.9327 158.978 59.0549 158.733 59.2993L152.133 65.8993ZM154 76.8327C152.155 76.8327 150.422 76.4827 148.8 75.7827C147.178 75.0827 145.767 74.1327 144.567 72.9327C143.367 71.7327 142.417 70.3216 141.717 68.6993C141.017 67.0771 140.667 65.3438 140.667 63.4993C140.667 61.6549 141.017 59.9216 141.717 58.2993C142.417 56.6771 143.367 55.266 144.567 54.066C145.767 52.866 147.178 51.916 148.8 51.216C150.422 50.516 152.155 50.166 154 50.166C155.844 50.166 157.578 50.516 159.2 51.216C160.822 51.916 162.233 52.866 163.433 54.066C164.633 55.266 165.583 56.6771 166.283 58.2993C166.983 59.9216 167.333 61.6549 167.333 63.4993C167.333 65.3438 166.983 67.0771 166.283 68.6993C165.583 70.3216 164.633 71.7327 163.433 72.9327C162.233 74.1327 160.822 75.0827 159.2 75.7827C157.578 76.4827 155.844 76.8327 154 76.8327Z" fill="#272727"/>
</g>
<g clip-path="url(#clip2_147_3019)">
<rect x="242.418" y="50.5" width="184" height="165" rx="8" transform="rotate(10.2704 242.418 50.5)" fill="white"/>
<rect x="249.967" y="109.796" width="65" height="10" rx="5" transform="rotate(10.2704 249.967 109.796)" fill="#ECECEC"/>
<rect x="246.401" y="129.476" width="149" height="10" rx="5" transform="rotate(10.2704 246.401 129.476)" fill="#ECECEC"/>
<rect x="242.835" y="149.155" width="149" height="10" rx="5" transform="rotate(10.2704 242.835 149.155)" fill="#ECECEC"/>
<mask id="mask3_147_3019" style="mask-type:alpha" maskUnits="userSpaceOnUse" x="251" y="69" width="38" height="38">
<rect x="257.277" y="69.4531" width="32" height="32" transform="rotate(10.2704 257.277 69.4531)" fill="#D9D9D9"/>
</mask>
<g mask="url(#mask3_147_3019)">
<path d="M257.136 92.6668L258.836 83.2862C258.963 82.5865 259.327 82.0427 259.928 81.6547C260.529 81.2668 261.175 81.1581 261.867 81.3286C263.547 81.904 265.1 82.7105 266.527 83.7482C267.954 84.7859 269.203 86.0229 270.275 87.4593C271.783 86.4904 273.387 85.7705 275.088 85.2994C276.788 84.8283 278.525 84.618 280.3 84.6686C281.008 84.7517 281.575 85.0803 282.002 85.6545C282.428 86.2286 282.578 86.8656 282.452 87.5653L280.752 96.9459C280.625 97.6456 280.287 98.1999 279.739 98.6086C279.191 99.0174 278.563 99.1803 277.855 99.0972C276.416 99.0623 274.995 99.1775 273.592 99.4427C272.189 99.7079 270.843 100.153 269.556 100.778C269.28 100.931 268.996 101.032 268.705 101.081C268.414 101.13 268.115 101.126 267.809 101.071C267.503 101.016 267.222 100.914 266.966 100.766C266.711 100.618 266.481 100.424 266.276 100.183C265.289 99.1465 264.186 98.2577 262.965 97.5171C261.744 96.7764 260.454 96.17 259.094 95.6978C258.402 95.5272 257.871 95.1544 257.501 94.5792C257.131 94.004 257.01 93.3665 257.136 92.6668ZM270.882 84.1138C269.438 83.8523 268.296 83.1146 267.455 81.9007C266.613 80.6867 266.323 79.3582 266.585 77.915C266.846 76.4719 267.584 75.3295 268.798 74.488C270.012 73.6465 271.34 73.3565 272.783 73.618C274.226 73.8795 275.369 74.6173 276.21 75.8312C277.052 77.0451 277.342 78.3737 277.08 79.8168C276.819 81.26 276.081 82.4023 274.867 83.2438C273.653 84.0853 272.325 84.3753 270.882 84.1138Z" fill="#272727"/>
</g>
</g>
<rect x="242.821" y="51.0811" width="183" height="164" rx="7.5" transform="rotate(10.2704 242.821 51.0811)" stroke="#EDEDED"/>
<rect y="0.5" width="499" height="161" fill="url(#paint0_linear_147_3019)"/>
</g>
<defs>
<linearGradient id="paint0_linear_147_3019" x1="249" y1="0.5" x2="249.523" y2="161.5" gradientUnits="userSpaceOnUse">
<stop stop-color="white" stop-opacity="0"/>
<stop offset="0.735" stop-color="white" stop-opacity="0.74"/>
<stop offset="1" stop-color="white"/>
</linearGradient>
<clipPath id="clip0_147_3019">
<rect width="499" height="161" fill="white" transform="translate(0 0.5)"/>
</clipPath>
<clipPath id="clip1_147_3019">
<rect y="39.8496" width="184" height="165" rx="8" transform="rotate(-10.7593 0 39.8496)" fill="white"/>
</clipPath>
<clipPath id="clip2_147_3019">
<rect x="242.418" y="50.5" width="184" height="165" rx="8" transform="rotate(10.2704 242.418 50.5)" fill="white"/>
</clipPath>
</defs>
</svg>
